<?xml version="1.0" encoding="utf-8"?>
<!-- Generator: Adobe Illustrator 19.0.0, SVG Export Plug-In . SVG Version: 6.00 Build 0)  -->
<svg version="1.1" xmlns="http://www.w3.org/2000/svg" xmlns:xlink="http://www.w3.org/1999/xlink" x="0px" y="0px"
	 viewBox="0 0 512 512" style="enable-background:new 0 0 512 512;" xml:space="preserve">
<style type="text/css">
	.st0{fill:#010101;}
</style>
<g id="Guide">
</g>
<g id="Crosshair">
	<path class="st0" d="M435,78c22,22,39.833,48.333,53.5,79c13.667,30.667,20.5,63.667,20.5,99s-6.833,68-20.5,98
		c-13.667,30-31.5,56.667-53.5,80l-15-14c21.333-20.667,38-45.167,50-73.5s18-58.5,18-90.5s-6-62.167-18-90.5
		s-28.667-53.167-50-74.5L435,78z M78,434c-23.333-23.333-41.667-50-55-80S3,291.333,3,256s6.667-68.333,20-99s31.667-57,55-79
		l13,13c-20.667,21.333-37,46.167-49,74.5S24,224,24,256s6,62.167,18,90.5s28.333,52.833,49,73.5L78,434z"/>
</g>
</svg>
