<?xml version="1.0" encoding="utf-8"?>
<!-- Generator: Adobe Illustrator 19.0.0, SVG Export Plug-In . SVG Version: 6.00 Build 0)  -->
<svg version="1.1" xmlns="http://www.w3.org/2000/svg" xmlns:xlink="http://www.w3.org/1999/xlink" x="0px" y="0px"
	 viewBox="0 0 512 512" style="enable-background:new 0 0 512 512;" xml:space="preserve">
<style type="text/css">
	.st0{fill:#010101;}
</style>
<g id="Guide">
</g>
<g id="Crosshair">
	<path class="st0" d="M188.125,352v5c-1.333,2.667-2,4.333-2,5c1.333,3.333,1,5.667-1,7c-3.333,2-5.667,3.333-7,4
		c-0.667,0.667-4,3.333-10,8c-6.667,4-10.5,6.667-11.5,8s-3.5,5.333-7.5,12c-3.333,3.333-7,6.667-11,10c-6,4-11,6.667-15,8h-7
		c-2,0-3.833-0.167-5.5-0.5c-1.667-0.333-3.833-1.167-6.5-2.5c-1.333-1.333-2-1.667-2-1c-12-5.333-20.667-10-26-14
		c-7.333-6-13-11.667-17-17c-6-5.333-9.667-9-11-11c-2-3.333-3.667-5-5-5c-8-5.333-15.333-26.667-22-64c-3.333-20-5-38-5-54v-7v-8
		c-0.667-6.667,0-14.667,2-24c1.333-9.333,1.667-14,1-14c8-28.667,17.667-51.667,29-69c9.333-15.333,18.667-26.667,28-34
		c8.667-6,15.667-9.333,21-10l10-1c28,8.667,46.667,16.667,56,24c10.667,8.667,16.333,13.333,17,14c1.333,4,3.333,8.667,6,14
		c4,9.333,6.667,15,8,17c2,4.667,2.667,7.667,2,9c0,1.333-2-0.667-6-6c-7.333-9.333-16.333-17.333-27-24l-14-10
		c-4.667-3.333-11.667-6.333-21-9c-8.667-1.333-15-2-19-2h-12l-5,1c-6.667,6-11.333,12.333-14,19c-1.333,2.667-4.333,10-9,22
		c-0.667,3.333-2.667,9.667-6,19c-1.333,5.333-2.333,8-3,8l-3,15c-2,7.333-3.333,17.667-4,31c-0.667,7.333-1,14.667-1,22
		c0,7.333,0.333,15.667,1,25c0.667,18,3.667,35.667,9,53c6,20,12,34.333,18,43c7.333,8.667,14.667,14,22,16
		c4.667,1.333,8.667,2,12,2c5.333,0,9.333-0.333,12-1l31-17c8-4.667,14.833-8.667,20.5-12S186.792,351.333,188.125,352z
		 M322.125,352l9,5c10.667,4.667,18,8.333,22,11l30,17c4,0.667,7.667,1,11,1l15-2c6.667-2.667,13-8,19-16c6.667-8.667,13-23,19-43
		c4.667-17.333,7.667-35,9-53v-25c0-8-0.167-15.167-0.5-21.5s-1.5-16.833-3.5-31.5c-1.333-5.333-2.667-10.333-4-15
		c-0.667-1.333-1.333-3.667-2-7l-5-20c-4-9.333-7.333-16.667-10-22c-4-7.333-9-13.667-15-19l-4-1h-13l-19,2l-20,9
		c-4.667,2.667-9.667,6-15,10c-4.667,2.667-13,10.667-25,24c-5.333,5.333-8,7.333-8,6c0-0.667,1-4,3-10c0.667-2,3-7.333,7-16
		c2.667-4,5-8.667,7-14c1.333-0.667,7-5,17-13c10.667-8,29-16.333,55-25c0.667,0,4,0.333,10,1c4,0.667,11.333,4.333,22,11
		c8.667,6.667,18,17.833,28,33.5s19.333,38.5,28,68.5l2,14c1.333,8,2,18.667,2,32c0,2.667-0.333,5-1,7c0,18-1.667,36-5,54
		c-7.333,35.333-14.667,56.667-22,64c0,0.667-1.333,2.333-4,5c-4,5.333-7.667,9.333-11,12c-3.333,3.333-9,8-17,14
		c-7.333,6-16.333,11.333-27,16c0-0.667-0.667-0.333-2,1c-0.667,0.667-2.667,1.667-6,3h-6.5h-4.5c-4.667-1.333-10.333-4-17-8l-10-10
		c-1.333-2.667-4-6.667-8-12s-11-10.667-21-16c-6.667-2.667-9.667-6.333-9-11c0.667-2,0.667-3.667,0-5V352z M236.125,256
		c0-5.333,1.833-10,5.5-14s8.5-6,14.5-6s11,2,15,6s6,8.667,6,14c0,5.333-2,10-6,14s-9,6-15,6s-10.833-2-14.5-6
		S236.125,261.333,236.125,256z"/>
</g>
</svg>
