<?xml version="1.0" encoding="utf-8"?>
<!-- Generator: Adobe Illustrator 19.0.0, SVG Export Plug-In . SVG Version: 6.00 Build 0)  -->
<svg version="1.1" xmlns="http://www.w3.org/2000/svg" xmlns:xlink="http://www.w3.org/1999/xlink" x="0px" y="0px"
	 viewBox="0 0 512 512" style="enable-background:new 0 0 512 512;" xml:space="preserve">
<style type="text/css">
	.st0{fill:#010101;}
</style>
<g id="Guide">
</g>
<g id="Crosshair">
	<path class="st0" d="M419.5,87.5c6,1.333,17.333,8,34,20c18,19.333,31.333,38.667,40,58c12,26.667,18,56.667,18,90v1
		c0,13.333-4.667,36.667-14,70c-20,52-45,78-75,78h-2c-15.333-1.333-41.333-14-78-38c-15.333-13.333-23.667-21.667-25-25h1
		c26,23.333,49.333,38.333,70,45c7.333,2.667,17.667,5,31,7h1c37.333,0,63.667-41.667,79-125c0.667-5.333,1-9.667,1-13
		c0-62-21.333-110.333-64-145c-8-6-14-10-18-12c-12,1.333-32.333,8.667-61,22c-10,6-23,16.333-39,31c-0.667,0-1-0.333-1-1
		c14.667-17.333,27.667-29,39-35C385.833,98.167,406.833,88.833,419.5,87.5z M155.5,115.5c10.667,6,23.667,17.667,39,35
		c0,0.667-0.333,1-1,1c-16-14.667-29.333-25-40-31c-28.667-13.333-48.667-20.667-60-22c-4,2-10.667,6-20,12
		c-41.333,34.667-62,83-62,145c0,3.333,0.333,7.667,1,13c15.333,83.333,41.333,125,78,125h3c12.667-2,23-4.333,31-7
		c20.667-6.667,43.667-21.667,69-45h1c-1.333,3.333-10,11.667-26,25c-36,24-61.667,36.667-77,38h-1c-31.333,0-56.667-26-76-78
		c-9.333-33.333-14-56.667-14-70v-1c0-33.333,6-63.333,18-90c8.667-19.333,22-38.667,40-58c16.667-12,28.333-18.667,35-20
		C105.5,88.833,126.167,98.167,155.5,115.5z"/>
</g>
</svg>
