<?xml version="1.0" encoding="utf-8"?>
<!-- Generator: Adobe Illustrator 19.0.0, SVG Export Plug-In . SVG Version: 6.00 Build 0)  -->
<svg version="1.1" xmlns="http://www.w3.org/2000/svg" xmlns:xlink="http://www.w3.org/1999/xlink" x="0px" y="0px"
	 viewBox="0 0 512 512" style="enable-background:new 0 0 512 512;" xml:space="preserve">
<style type="text/css">
	.st0{fill:#010101;}
</style>
<g id="Guide">
</g>
<g id="Crosshair">
	<path class="st0" d="M114,76h2c6,0,21.667,7.667,47,23c8.667,6,21,17.333,37,34c10,14.667,15,25,15,31v1c0,3.333-1.333,5-4,5h-4
		c-22-23.333-38.333-38-49-44c-20.667-10-33.667-15-39-15h-5c-7.333,0-13,3.667-17,11c-22,46.667-33,93-33,139
		c0,45.333,11.667,87.667,35,127c6,5.333,11.667,8,17,8h3c7.333,0,14.667-3.667,22-11c20-15.333,42-29,66-41c4,1.333,6,3.333,6,6v1
		c0,10.667-22,34-66,70c-7.333,8-17.667,12-31,12c-10,0-21.667-2.333-35-7c-17.333-14-32-31-44-51c-10-19.333-19.333-40.333-28-63
		v-93c0-24,14.667-59,44-105C75,88.667,95.333,76,114,76z M394,75l2,1c22,0,44,15,66,45c26,44,39,76.667,39,98v92
		c0,5.333-9.333,26-28,62c-20.667,34.667-39,53.667-55,57l-24,3c-16.667,0-28.667-5.333-36-16c-40.667-32-61-54-61-66v-1
		c0-4,2-6,6-6c36.667,20.667,62.333,37.333,77,50c3.333,1.333,7,2,11,2h3c11.333,0,20-8,26-24c17.333-36,26-73,26-111
		c0-49.333-11.667-97.333-35-144c-7.333-4-12.333-6-15-6h-5c-5.333,0-19,5.333-41,16c-12,8.667-26.667,22-44,40c0,1.333-1,2.333-3,3
		h-4c-4.667,0-7-1.667-7-5v-1c4.667-16,18.667-34,42-54c16-12.667,30-22,42-28C384.667,77.333,390.667,75,394,75z"/>
</g>
</svg>
