<?xml version="1.0" encoding="utf-8"?>
<!-- Generator: Adobe Illustrator 19.0.0, SVG Export Plug-In . SVG Version: 6.00 Build 0)  -->
<svg version="1.1" xmlns="http://www.w3.org/2000/svg" xmlns:xlink="http://www.w3.org/1999/xlink" x="0px" y="0px"
	 viewBox="0 0 512 512" style="enable-background:new 0 0 512 512;" xml:space="preserve">
<style type="text/css">
	.st0{fill:#010101;}
</style>
<g id="Guide">
</g>
<g id="Crosshair">
	<path class="st0" d="M425,73.5c49.333,0,84,60.667,104,182v2c0,74.667-35,130.333-105,167h-7c-20.667,0-43.333-16.667-68-50v-3
		c26,25.333,49.667,38,71,38c50.667-28,76-79.333,76-154c-8-112-34.333-168-79-168h-9c-6,0-24.333,7-55,21
		C375,85.167,399,73.5,425,73.5z M158,108.5c-30-14-48.333-21-55-21h-9c-44,0-70,56-78,168c0,74.667,25,126,75,154
		c21.333,0,45.333-12.667,72-38v3c-25.333,33.333-48.333,50-69,50h-9c-68-36.667-102-92.333-102-167v-2
		c19.333-121.333,53.333-182,102-182C111.667,73.5,136,85.167,158,108.5z"/>
</g>
</svg>
