<?xml version="1.0" encoding="utf-8"?>
<!-- Generator: Adobe Illustrator 19.0.0, SVG Export Plug-In . SVG Version: 6.00 Build 0)  -->
<svg version="1.1" xmlns="http://www.w3.org/2000/svg" xmlns:xlink="http://www.w3.org/1999/xlink" x="0px" y="0px"
	 viewBox="0 0 512 512" style="enable-background:new 0 0 512 512;" xml:space="preserve">
<style type="text/css">
	.st0{fill:#010101;}
</style>
<g id="Guide">
</g>
<g id="Crosshair">
	<path class="st0" d="M79,116c-12,15.333-22,32.667-30,52c-12,28-18,57.333-18,88c0,31.333,6,60.667,18,88s28.167,51,48.5,71
		s44.5,36.333,72.5,49l23-57c-20-8-37.5-19.333-52.5-34s-26.667-32.167-35-52.5S93,278.667,93,256s4-44,12-64
		c4.667-10.667,10.333-21,17-31L79,116z M391,157l44-41c12,14,22,31.333,30,52c12,30.667,18,60,18,88c0,31.333-5.833,60.667-17.5,88
		s-27.833,51.333-48.5,72s-45,36.667-73,48l-23-57c19.333-8,36.5-19.333,51.5-34s26.833-32.167,35.5-52.5s13-41.833,13-64.5
		c0-28.667-2.667-48.667-8-60C405.667,180,398.333,167,391,157z M320,105l24-57c22,8.667,41.667,20.333,59,35l-45,44
		C348,118.333,335.333,111,320,105z M153,128c12-9.333,25.333-17,40-23l-23-57c-21.333,8.667-41.667,20.667-61,36L153,128z M256,285
		c-8,0-14.667-2.667-20-8c-5.333-6-8-13-8-21s2.667-14.667,8-20c5.333-6,12-9,20-9c7.333,0,14,3,20,9c6,5.333,9,12,9,20s-3,15-9,21
		C270,282.333,263.333,285,256,285z"/>
</g>
</svg>
