<?xml version="1.0" encoding="utf-8"?>
<!-- Generator: Adobe Illustrator 19.0.0, SVG Export Plug-In . SVG Version: 6.00 Build 0)  -->
<svg version="1.1" xmlns="http://www.w3.org/2000/svg" xmlns:xlink="http://www.w3.org/1999/xlink" x="0px" y="0px"
	 viewBox="0 0 512 512" style="enable-background:new 0 0 512 512;" xml:space="preserve">
<style type="text/css">
	.st0{fill:#010101;}
</style>
<g id="Guide">
</g>
<g id="Crosshair">
	<path class="st0" d="M78.5,116c-12,15.333-22,32.667-30,52c-12,28-18,57.333-18,88c0,31.333,6,60.667,18,88s28.167,51,48.5,71
		s44.5,36.333,72.5,49l23-57c-20-8-37.5-19.333-52.5-34s-26.667-32.167-35-52.5S92.5,278.667,92.5,256s4-44,12-64
		c4.667-10.667,10.333-21,17-31L78.5,116z M390.5,157l44-41c12,14,22,31.333,30,52c12,30.667,18,60,18,88
		c0,31.333-5.833,60.667-17.5,88s-27.833,51.333-48.5,72s-45,36.667-73,48l-23-57c19.333-8,36.5-19.333,51.5-34
		s26.833-32.167,35.5-52.5s13-41.833,13-64.5c0-28.667-2.667-48.667-8-60C405.167,180,397.833,167,390.5,157z M319.5,105l24-57
		c22,8.667,41.667,20.333,59,35l-45,44C347.5,118.333,334.833,111,319.5,105z M152.5,128c12-9.333,25.333-17,40-23l-23-57
		c-21.333,8.667-41.667,20.667-61,36L152.5,128z"/>
</g>
</svg>
