<?xml version="1.0" encoding="utf-8"?>
<!-- Generator: Adobe Illustrator 19.0.0, SVG Export Plug-In . SVG Version: 6.00 Build 0)  -->
<svg version="1.1" xmlns="http://www.w3.org/2000/svg" xmlns:xlink="http://www.w3.org/1999/xlink" x="0px" y="0px"
	 viewBox="0 0 512 512" style="enable-background:new 0 0 512 512;" xml:space="preserve">
<style type="text/css">
	.st0{fill:#010101;}
</style>
<g id="Guide">
</g>
<g id="Crosshair">
	<path class="st0" d="M151.5,362c-13.333-14-23.833-30-31.5-48s-11.5-37.333-11.5-58s3.833-40,11.5-58s18.167-33.333,31.5-46l8,8
		c-12.667,12.667-22.5,27.167-29.5,43.5s-10.5,33.833-10.5,52.5c0,19.333,3.5,37.167,10.5,53.5s16.833,30.833,29.5,43.5L151.5,362z
		 M351.5,353c12.667-12.667,22.5-27.167,29.5-43.5s10.5-34.167,10.5-53.5s-3.5-37-10.5-53s-16.833-30.333-29.5-43l9-8
		c13.333,12.667,23.833,28.167,31.5,46.5s11.5,37.5,11.5,57.5c0,20.667-3.833,40-11.5,58s-18.167,33.333-31.5,46L351.5,353z
		 M430.5,82c22,22,39.5,48,52.5,78s19.5,62,19.5,96c0,34.667-6.667,66.667-20,96c-12.667,30-30,56-52,78l-15-13
		c20.667-20,36.833-44,48.5-72s17.5-57.667,17.5-89s-5.833-60.833-17.5-88.5s-27.833-51.833-48.5-72.5L430.5,82z M81.5,430
		c-23.333-22-41.167-47.833-53.5-77.5S9.5,290.667,9.5,256c0-34,6.333-66,19-96c12-30,29.667-56,53-78l13,13
		c-20.667,20.667-36.833,44.833-48.5,72.5S28.5,224.667,28.5,256s5.833,61,17.5,89s27.833,52,48.5,72L81.5,430z"/>
</g>
</svg>
