<?xml version="1.0" encoding="utf-8"?>
<!-- Generator: Adobe Illustrator 19.0.0, SVG Export Plug-In . SVG Version: 6.00 Build 0)  -->
<svg version="1.1" xmlns="http://www.w3.org/2000/svg" xmlns:xlink="http://www.w3.org/1999/xlink" x="0px" y="0px"
	 viewBox="0 0 512 512" style="enable-background:new 0 0 512 512;" xml:space="preserve">
<style type="text/css">
	.st0{fill:#010101;}
</style>
<g id="Guide">
</g>
<g id="Crosshair">
	<path class="st0" d="M423,435l-91-93l6-7l93,94L423,435z M329,168l94-91l7,6l-94,93L329,168z M349,353
		c12.667-12.667,22.5-27.167,29.5-43.5S389,275.333,389,256s-3.5-37-10.5-53s-16.833-30.333-29.5-43l9-9
		c13.333,13.333,23.833,29.167,31.5,47.5S401,236,401,256c0,20.667-3.833,40.167-11.5,58.5S371.333,348.667,358,362L349,353z
		 M427,82c22.667,22.667,40.5,48.833,53.5,78.5S500,222,500,256c0,34.667-6.667,66.667-20,96c-12.667,30-30.333,56-53,78l-14-12
		c20.667-20.667,36.833-45,48.5-73s17.5-57.667,17.5-89c0-30.667-5.833-60-17.5-88s-27.833-52.333-48.5-73L427,82z M89,77l91,93
		l-6,7L81,83L89,77z M183,344l-94,91l-7-6l94-93L183,344z M163,159c-12.667,12.667-22.5,27.167-29.5,43.5S123,236.667,123,256
		s3.5,37,10.5,53s16.833,30.333,29.5,43l-9,9c-13.333-13.333-23.833-29.167-31.5-47.5C114.833,295.167,111,276,111,256
		c0-20.667,3.833-40.167,11.5-58.5s18.167-34.167,31.5-47.5L163,159z M85,430c-22.667-22.667-40.5-48.833-53.5-78.5
		C18.5,321.833,12,290,12,256c0-34.667,6.667-66.667,20-96c12.667-30,30.333-56,53-78l14,12c-20.667,20.667-36.833,45-48.5,73
		S33,224.667,33,256c0,30.667,5.833,60,17.5,88s27.833,52.333,48.5,73L85,430z"/>
</g>
</svg>
