<?xml version="1.0" encoding="utf-8"?>
<!-- Generator: Adobe Illustrator 19.0.0, SVG Export Plug-In . SVG Version: 6.00 Build 0)  -->
<svg version="1.1" xmlns="http://www.w3.org/2000/svg" xmlns:xlink="http://www.w3.org/1999/xlink" x="0px" y="0px"
	 viewBox="0 0 512 512" style="enable-background:new 0 0 512 512;" xml:space="preserve">
<style type="text/css">
	.st0{fill:#010101;}
</style>
<g id="Guide">
</g>
<g id="Crosshair">
	<path class="st0" d="M84,78l91,93l-6,6L76,83L84,78z M178,344l-94,92l-7-7l94-93L178,344z M158,160c-12.667,12.667-22.5,27-29.5,43
		S118,236.667,118,256s3.5,37.167,10.5,53.5S145.333,340,158,352l-9,10c-13.333-13.333-23.833-29.333-31.5-48S106,276.333,106,257
		c0-20.667,3.833-40.167,11.5-58.5s18.167-34.167,31.5-47.5L158,160z M80,430c-22.667-22-40.5-47.833-53.5-77.5S7,291,7,257
		c0-35.333,6.667-67.667,20-97c12.667-29.333,30.333-55.333,53-78l14,13c-20.667,20.667-36.833,45-48.5,73S28,225.667,28,257
		c0,30.667,5.833,59.833,17.5,87.5S73.333,396.333,94,417L80,430z M424,435l-91-93l6-7l93,94L424,435z M330,168l94-91l7,6l-94,93
		L330,168z M150,362c-13.333-13.333-23.833-29.167-31.5-47.5S107,276.667,107,256s3.833-40,11.5-58s18.167-33.667,31.5-47l8,9
		c-12.667,12.667-22.5,27.167-29.5,43.5S118,237.333,118,256c0,19.333,3.5,37.167,10.5,53.5s16.833,30.833,29.5,43.5L150,362z
		 M350,353c12.667-12.667,22.5-27.167,29.5-43.5S390,275.333,390,256s-3.5-37-10.5-53s-16.833-30.333-29.5-43l9-9
		c13.333,13.333,23.833,29.167,31.5,47.5S402,236,402,256c0,20.667-3.833,40.167-11.5,58.5S372.333,348.667,359,362L350,353z
		 M428,82c22.667,22.667,40.5,48.833,53.5,78.5S501,222,501,256c0,34.667-6.667,66.667-20,96c-12.667,30-30.333,56-53,78l-14-12
		c20.667-20.667,36.833-45,48.5-73s17.5-57.667,17.5-89c0-30.667-5.833-60-17.5-88s-27.833-52.333-48.5-73L428,82z M80,430
		c-22.667-22-40.333-47.833-53-77.5S8,290.667,8,256s6.333-66.667,19-96s30.333-55.333,53-78l13,13
		c-20.667,20.667-36.833,45-48.5,73S27,225.333,27,256c0,31.333,5.833,61,17.5,89s27.833,52.333,48.5,73L80,430z"/>
</g>
</svg>
