<?xml version="1.0" encoding="utf-8"?>
<!-- Generator: Adobe Illustrator 19.0.0, SVG Export Plug-In . SVG Version: 6.00 Build 0)  -->
<svg version="1.1" xmlns="http://www.w3.org/2000/svg" xmlns:xlink="http://www.w3.org/1999/xlink" x="0px" y="0px"
	 viewBox="0 0 512 512" style="enable-background:new 0 0 512 512;" xml:space="preserve">
<style type="text/css">
	.st0{fill:#010101;}
</style>
<g id="Guide">
</g>
<g id="Crosshair">
	<path class="st0" d="M89,77.5l91,93l-7,6l-92-94L89,77.5z M183,343.5l-94,92l-8-7l94-93L183,343.5z M97,417.5l-13,12
		c-23.333-22-41.167-47.833-53.5-77.5S12,290.167,12,255.5s6.333-66.667,19-96c12-29.333,29.667-55.333,53-78l13,13l57,56l8,9
		c-12.667,12.667-22.5,27.167-29.5,43.5S122,236.833,122,255.5c0,19.333,3.5,37.167,10.5,53.5s16.833,30.833,29.5,43.5l-8,9
		L97,417.5z M423,434l-91-93l7-6l92,94L423,434z M329,168l94-92l8,7l-94,93L329,168z M415,94l13-12
		c23.333,22,41.167,47.833,53.5,77.5S500,221.333,500,256s-6.333,66.667-19,96c-12,29.333-29.667,55.333-53,78l-13-13l-57-56l-8-9
		c12.667-12.667,22.5-27.167,29.5-43.5c7-16.333,10.5-33.833,10.5-52.5c0-19.333-3.5-37.167-10.5-53.5S362.667,171.667,350,159l8-9
		L415,94z"/>
</g>
</svg>
