<?xml version="1.0" encoding="utf-8"?>
<!-- Generator: Adobe Illustrator 19.0.0, SVG Export Plug-In . SVG Version: 6.00 Build 0)  -->
<svg version="1.1" xmlns="http://www.w3.org/2000/svg" xmlns:xlink="http://www.w3.org/1999/xlink" x="0px" y="0px"
	 viewBox="0 0 512 512" style="enable-background:new 0 0 512 512;" xml:space="preserve">
<style type="text/css">
	.st0{fill:#010101;}
</style>
<g id="Guide">
</g>
<g id="Crosshair">
	<path class="st0" d="M85.5,77.5l91,93l-7,6l-92-94L85.5,77.5z M179.5,343.5l-94,92l-8-7l94-93L179.5,343.5z M424.5,434.5l-91-93
		l6-7l93,94L424.5,434.5z M330.5,167.5l94-91l7,6l-94,93L330.5,167.5z M414.5,94.5l15-13c22,22.667,39.5,48.833,52.5,78.5
		s19.5,61.5,19.5,95.5c0,34.667-6.667,66.667-20,96c-12.667,30-30,56-52,78l-15-12l-55-56l-9-9c12.667-12.667,22.5-27.167,29.5-43.5
		s10.5-34.167,10.5-53.5s-3.5-37-10.5-53s-16.833-30.333-29.5-43l9-9L414.5,94.5z M93.5,417.5l-13,12
		c-23.333-22-41.167-47.833-53.5-77.5S8.5,290.167,8.5,255.5s6.333-66.667,19-96c12-29.333,29.667-55.333,53-78l13,13l57,56l8,9
		C145.833,172.167,136,186.667,129,203s-10.5,33.833-10.5,52.5c0,19.333,3.5,37.167,10.5,53.5s16.833,30.833,29.5,43.5l-8,9
		L93.5,417.5z"/>
</g>
</svg>
