<?xml version="1.0" encoding="utf-8"?>
<!-- Generator: Adobe Illustrator 19.0.0, SVG Export Plug-In . SVG Version: 6.00 Build 0)  -->
<svg version="1.1" xmlns="http://www.w3.org/2000/svg" xmlns:xlink="http://www.w3.org/1999/xlink" x="0px" y="0px"
	 viewBox="0 0 512 512" style="enable-background:new 0 0 512 512;" xml:space="preserve">
<style type="text/css">
	.st0{fill:#010101;}
</style>
<g id="Guide">
</g>
<g id="Crosshair">
	<path class="st0" d="M482.5,131.5c-2.667-9.333-9.333-21.5-20-36.5s-18.333-22.5-23-22.5l-2-1l-80,81l58-35
		c4.667,0,10.667,6.333,18,19s14.667,30.167,22,52.5s11,44.833,11,67.5c0,53.333-17,99.333-51,138l-58-33l82,79
		c3.333,0,10.833-7.667,22.5-23s18.5-27.333,20.5-36l-9-20c13.333-29.333,20-64.333,20-105c0-17.333-1.5-34.833-4.5-52.5
		s-6.167-30.5-9.5-38.5l-6-13c-0.667-2.667,0-5.833,2-9.5s3.667-6.5,5-8.5L482.5,131.5z M38.5,361.5
		c-13.333-29.333-20-64.333-20-105c0-17.333,1.5-34.833,4.5-52.5s6.167-30.5,9.5-38.5l6-13c0-3.333-1.5-7.167-4.5-11.5
		s-4.5-7.5-4.5-9.5c2.667-9.333,9.333-21.5,20-36.5s18.333-22.5,23-22.5l2-1l77,84l-55-38c-4.667,0-10.667,6.333-18,19
		s-14.667,30.167-22,52.5s-11,44.833-11,67.5c0,53.333,17,99.333,51,138l55-37l-79,83c-3.333,0-10.833-7.667-22.5-23
		s-18.5-27.333-20.5-36L38.5,361.5z"/>
</g>
</svg>
