<?xml version="1.0" encoding="utf-8"?>
<!-- Generator: Adobe Illustrator 19.0.0, SVG Export Plug-In . SVG Version: 6.00 Build 0)  -->
<svg version="1.1" xmlns="http://www.w3.org/2000/svg" xmlns:xlink="http://www.w3.org/1999/xlink" x="0px" y="0px"
	 viewBox="0 0 512 512" style="enable-background:new 0 0 512 512;" xml:space="preserve">
<style type="text/css">
	.st0{fill:#010101;}
</style>
<g id="Guide">
</g>
<g id="Crosshair">
	<path class="st0" d="M409,101.5c-19.333-20-42.167-35.667-68.5-47c-26.333-11.333-54.833-17-85.5-17s-59.167,5.667-85.5,17
		s-49.167,27-68.5,47l-13-13c22-21.333,47.167-38.333,75.5-51s58.833-19,91.5-19c32,0,62.667,6.333,92,19
		c29.333,12.667,55,29.667,77,51L409,101.5z M101,410.5c19.333,20,42.167,35.5,68.5,46.5s54.833,16.5,85.5,16.5
		s59.167-5.5,85.5-16.5c26.333-11,49.167-26.5,68.5-46.5l15,12c-22,22-47.667,39.333-77,52c-29.333,12.667-60,19-92,19
		c-32.667,0-63.167-6.333-91.5-19s-53.5-30-75.5-52L101,410.5z"/>
</g>
</svg>
