<?xml version="1.0" encoding="utf-8"?>
<!-- Generator: Adobe Illustrator 19.0.0, SVG Export Plug-In . SVG Version: 6.00 Build 0)  -->
<svg version="1.1" xmlns="http://www.w3.org/2000/svg" xmlns:xlink="http://www.w3.org/1999/xlink" x="0px" y="0px"
	 viewBox="0 0 512 512" style="enable-background:new 0 0 512 512;" xml:space="preserve">
<style type="text/css">
	.st0{fill:#010101;}
</style>
<g id="Guide">
</g>
<g id="Crosshair">
	<path class="st0" d="M146,36.5c33.333-18,70-27,110-27c18.667,0,37.167,2.333,55.5,7s34.833,11,49.5,19l-15,18
		c-14.667-6-29.333-11-44-15s-30-6-46-6c-18,0-34.667,2-50,6s-30.333,9.333-45,16L146,36.5z M155,445.5
		c-28-12.667-52.333-30.5-73-53.5s-35.333-49.833-44-80.5l20-4c10,26.667,24.167,50.167,42.5,70.5s40.167,36.5,65.5,48.5L155,445.5z
		 M467,326.5c-10,28-25.667,52.5-47,73.5s-45.333,37.833-72,50.5l-11-21c23.333-10,44.667-24.5,64-43.5s34-41.167,44-66.5L467,326.5
		z M282,256c0,7.667-2.5,14.333-7.5,20s-11.167,8.5-18.5,8.5c-7.333,0-13.667-2.833-19-8.5s-8-12.333-8-20s2.667-14,8-19
		s11.667-7.5,19-7.5c7.333,0,13.5,2.5,18.5,7.5S282,248.333,282,256z"/>
</g>
</svg>
