<?xml version="1.0" encoding="utf-8"?>
<!-- Generator: Adobe Illustrator 19.0.0, SVG Export Plug-In . SVG Version: 6.00 Build 0)  -->
<svg version="1.1" xmlns="http://www.w3.org/2000/svg" xmlns:xlink="http://www.w3.org/1999/xlink" x="0px" y="0px"
	 viewBox="0 0 512 512" style="enable-background:new 0 0 512 512;" xml:space="preserve">
<style type="text/css">
	.st0{fill:#010101;}
</style>
<g id="Guide">
</g>
<g id="Crosshair">
	<path class="st0" d="M146,66.5c34.667-18.667,71.333-28,110-28c19.333,0,37.833,2.167,55.5,6.5S346,55.833,362,64.5l-18,17
		c-14-6-28.333-11-43-15s-29.667-6-45-6c-16.667,0-32.667,2-48,6s-30,9.667-44,17L146,66.5z M157,468.5
		c-28-12.667-51.833-30.333-71.5-53s-33.833-48.667-42.5-78l19-5c9.333,26.667,23.167,50,41.5,70s39.5,36,63.5,48L157,468.5z
		 M465,351.5c-10.667,27.333-26.333,51.5-47,72.5s-44,37.5-70,49.5l-12-20c24-10,45.5-24.5,64.5-43.5s33.167-40.833,42.5-65.5
		L465,351.5z"/>
</g>
</svg>
