<?xml version="1.0" encoding="utf-8"?>
<!-- Generator: Adobe Illustrator 19.0.0, SVG Export Plug-In . SVG Version: 6.00 Build 0)  -->
<svg version="1.1" xmlns="http://www.w3.org/2000/svg" xmlns:xlink="http://www.w3.org/1999/xlink" x="0px" y="0px"
	 viewBox="0 0 512 512" style="enable-background:new 0 0 512 512;" xml:space="preserve">
<style type="text/css">
	.st0{fill:#010101;}
</style>
<g id="Guide">
</g>
<g id="Crosshair">
	<path class="st0" d="M84.5,214c4.667-17.333,11.333-33.5,20-48.5s19.667-28.167,33-39.5s28-20.833,44-28.5s32.667-13.167,50-16.5
		v18c-17.333,2-33.333,7-48,15s-27.833,17.667-39.5,29s-21.667,24.5-30,39.5S100.833,214,99.5,232h-17h-71v-18H84.5z M99.5,282
		c1.333,16.667,6.167,32.5,14.5,47.5s18.333,28.333,30,40s24.833,21.5,39.5,29.5s30.667,13,48,15v17c-17.333-2-34-7-50-15
		s-30.667-17.833-44-29.5s-24.333-25-33-40s-15.333-31.167-20-48.5h-73v-16h71H99.5z M500.5,282v16h-69
		c-4,17.333-10.833,33.5-20.5,48.5s-20.667,28.333-33,40S351.5,408,335.5,416s-33,13-51,15v-17c16-2,31.833-7,47.5-15
		s29.333-17.833,41-29.5s21.167-25,28.5-40s12.333-30.833,15-47.5h18H500.5z M431.5,214c-4-17.333-10.833-33.5-20.5-48.5
		s-20.667-28.167-33-39.5s-26.5-20.833-42.5-28.5s-33-13.167-51-16.5v18c16,2,31.833,7,47.5,15s29.333,17.667,41,29
		s21.167,24.5,28.5,39.5s12.333,31.5,15,49.5h18h66v-18H431.5z"/>
</g>
</svg>
