<?xml version="1.0" encoding="utf-8"?>
<!-- Generator: Adobe Illustrator 19.0.0, SVG Export Plug-In . SVG Version: 6.00 Build 0)  -->
<svg version="1.1" xmlns="http://www.w3.org/2000/svg" xmlns:xlink="http://www.w3.org/1999/xlink" x="0px" y="0px"
	 viewBox="0 0 512 512" style="enable-background:new 0 0 512 512;" xml:space="preserve">
<style type="text/css">
	.st0{fill:#010101;}
</style>
<g id="Guide">
</g>
<g id="Crosshair">
	<path class="st0" d="M104.5,279.5c2.667,16,7.667,31.333,15,46c7.333,14.667,16.833,27.5,28.5,38.5s24.5,20.333,38.5,28
		s29,12.833,45,15.5v16v67h-15v-70c-30.667-7.333-57-22-79-44s-36.667-48.333-44-79h-73v-16h68v-2H104.5z M427.5,281.5h64v16h-68
		c-3.333,14.667-9,29-17,43S389,366.667,378,377s-23.5,19.5-37.5,27.5s-29,13.333-45,16v70h-13v-80v-3
		c17.333-2.667,33-7.833,47-15.5s26.5-17,37.5-28s20.167-23.833,27.5-38.5s12.333-30,15-46h18V281.5z M491.5,216.5v16h-64h-18
		c-5.333-33.333-19.333-61.5-42-84.5s-51-37.5-85-43.5v-1v-82h13v70c32,7.333,59.5,22,82.5,44s38.167,49,45.5,81H491.5z M231.5,89.5
		v15c-32,6-59.667,20.5-83,43.5s-38,51.167-44,84.5h-16h-68v-16h73c7.333-30.667,22-57.167,44-79.5s48.333-37.167,79-44.5v-71h15
		V89.5z"/>
</g>
</svg>
