<?xml version="1.0" encoding="utf-8"?>
<!-- Generator: Adobe Illustrator 19.0.0, SVG Export Plug-In . SVG Version: 6.00 Build 0)  -->
<svg version="1.1" xmlns="http://www.w3.org/2000/svg" xmlns:xlink="http://www.w3.org/1999/xlink" x="0px" y="0px"
	 viewBox="0 0 512 512" style="enable-background:new 0 0 512 512;" xml:space="preserve">
<style type="text/css">
	.st0{fill:#010101;}
</style>
<g id="Guide">
</g>
<g id="Crosshair">
	<path class="st0" d="M487,267.5h-73c-1.333,19.333-6.167,37.5-14.5,54.5s-19,32-32,45s-28,23.667-45,32s-34.833,12.833-53.5,13.5
		v74h-25v-74c-18.667-0.667-36.667-5.167-54-13.5s-32.333-19-45-32s-23.167-28-31.5-45s-13.167-35.167-14.5-54.5H25v-24h74
		c1.333-20,6.167-38.333,14.5-55S132.333,157,145,144s27.667-23.5,45-31.5s35.333-12.667,54-14v-73h25v73
		c18.667,1.333,36.5,6,53.5,14s32,18.5,45,31.5s23.667,27.833,32,44.5s13.167,35,14.5,55h73V267.5z M269,384.5
		c15.333-2,29.667-6,43-12s25.167-14.333,35.5-25s18.833-22.833,25.5-36.5s10.667-28.167,12-43.5h-44v-24h44
		c-1.333-15.333-5.333-29.667-12-43s-15.167-25.333-25.5-36s-22.167-19.333-35.5-26s-27.667-10.667-43-12v43h-25v-43
		c-15.333,1.333-29.667,5.333-43,12s-25.333,15.333-36,26s-19.167,22.667-25.5,36s-10.5,27.667-12.5,43h44v24h-44
		c2,15.333,6.167,29.833,12.5,43.5s14.833,25.833,25.5,36.5s22.667,19,36,25s27.667,10,43,12v-44h25V384.5z"/>
</g>
</svg>
