<?xml version="1.0" encoding="utf-8"?>
<!-- Generator: Adobe Illustrator 19.0.0, SVG Export Plug-In . SVG Version: 6.00 Build 0)  -->
<svg version="1.1" xmlns="http://www.w3.org/2000/svg" xmlns:xlink="http://www.w3.org/1999/xlink" x="0px" y="0px"
	 viewBox="0 0 512 512" style="enable-background:new 0 0 512 512;" xml:space="preserve">
<style type="text/css">
	.st0{fill:#010101;}
</style>
<g id="Guide">
</g>
<g id="Crosshair">
	<path class="st0" d="M491,268h-74c-2,20-7.167,38.833-15.5,56.5s-19,33-32,46s-28.167,23.667-45.5,32s-36,13.167-56,14.5v75h-24
		v-75c-20-1.333-38.833-6.167-56.5-14.5s-33-19-46-32s-23.5-28.333-31.5-46S97,288,95,268H21v-24h74c2-20,7-38.833,15-56.5
		s18.5-32.833,31.5-45.5c13-12.667,28.333-23.167,46-31.5S224,97,244,95V21h24v74c20,2,38.667,7.167,56,15.5s32.5,18.833,45.5,31.5
		c13,12.667,23.667,27.833,32,45.5S415,224,417,244h74V268z M268,387c15.333-0.667,30-4.333,44-11s26.333-15.333,37-26
		s19.5-23,26.5-37s11.167-29,12.5-45h-45v-24h45c-1.333-16-5.5-30.833-12.5-44.5S359.667,173.667,349,163s-23-19.333-37-26
		c-14-6.667-28.667-11-44-13v45h-24v-45c-16,2-30.833,6.333-44.5,13c-13.667,6.667-26,15.333-37,26s-19.833,22.833-26.5,36.5
		S125.333,228,124,244h45v24h-45c1.333,16,5.333,31,12,45s15.5,26.333,26.5,37s23.333,19.333,37,26s28.5,10.333,44.5,11v-44h24V387z
		 M244,244h24v24h-24V244z"/>
</g>
</svg>
