<?xml version="1.0" encoding="utf-8"?>
<!-- Generator: Adobe Illustrator 19.0.0, SVG Export Plug-In . SVG Version: 6.00 Build 0)  -->
<svg version="1.1" xmlns="http://www.w3.org/2000/svg" xmlns:xlink="http://www.w3.org/1999/xlink" x="0px" y="0px"
	 viewBox="0 0 512 512" style="enable-background:new 0 0 512 512;" xml:space="preserve">
<style type="text/css">
	.st0{fill:#010101;}
</style>
<g id="Guide">
</g>
<g id="Crosshair">
	<path class="st0" d="M271.5,130.5h-31v-97h31V130.5z M271.5,479.5h-31v-97h31V479.5z M34.5,271.5v-30h96v30H34.5z M384.5,267.5v-24
		h96v25L384.5,267.5z M256.5,61.5c26.667,0,52,5.333,76,16s44.667,24.333,62,41c18,18.667,32,39.333,42,62c9.333,20.667,14,46,14,76
		s-4.667,55.333-14,76c-10,22.667-23.833,43.167-41.5,61.5s-38.167,32.5-61.5,42.5s-49,15-77,15c-26.667,0-51.667-5-75-15
		s-43.667-24-61-42c-18-18-32-38.667-42-62c-10.667-23.333-16-48.667-16-76s5.333-52.667,16-76c10-23.333,24-44,42-62
		c17.333-16.667,38-30.333,62-41S231.167,61.5,256.5,61.5z M257.5,416.5c22.667,0,43.5-4.333,62.5-13s35.833-20,50.5-34
		c13.333-14,24.333-30.667,33-50c8.667-20,13-41,13-63s-4.333-42.667-13-62s-20-36.167-34-50.5c-14-14.333-30.333-25.5-49-33.5
		c-20.667-9.333-42-14-64-14S213.667,101,194,110s-36.167,20.5-49.5,34.5c-14.667,14-26,30.667-34,50s-12,40-12,62s4.333,43,13,63
		c8.667,19.333,19.667,36,33,50s30,25.333,50,34C213.833,412.167,234.833,416.5,257.5,416.5z"/>
</g>
</svg>
