<?xml version="1.0" encoding="utf-8"?>
<!-- Generator: Adobe Illustrator 19.0.0, SVG Export Plug-In . SVG Version: 6.00 Build 0)  -->
<svg version="1.1" xmlns="http://www.w3.org/2000/svg" xmlns:xlink="http://www.w3.org/1999/xlink" x="0px" y="0px"
	 viewBox="0 0 512 512" style="enable-background:new 0 0 512 512;" xml:space="preserve">
<style type="text/css">
	.st0{fill:#010101;}
</style>
<g id="Guide">
</g>
<g id="Crosshair">
	<path class="st0" d="M92,76.5l91,93l-7,6l-92-94L92,76.5z M183,343.5l-94,92l-8-7l94-93L183,343.5z M81.959,427.552
		C59.624,405.98,42.471,380.796,30.5,352C18.167,322.333,12,290.167,12,255.5s6.333-66.667,19-96c12-29.333,29.667-55.333,53-78
		c0,0,77.442,78.561,77.165,78.842C148.9,172.808,139.345,187.027,132.5,203c-7,16.333-10.5,33.833-10.5,52.5
		c0,19.333,3.5,37.167,10.5,53.5c6.616,15.437,15.763,29.237,27.441,41.398C160.618,351.104,82.635,428.205,81.959,427.552z
		 M420,435.5l-91-93l7-6l92,94L420,435.5z M329,168.5l94-92l8,7l-94,93L329,168.5z M430.041,84.448
		C452.376,106.02,469.529,131.204,481.5,160c12.333,29.667,18.5,61.833,18.5,96.5s-6.333,66.667-19,96
		c-12,29.333-29.667,55.333-53,78c0,0-77.442-78.561-77.165-78.842C363.1,339.192,372.655,324.973,379.5,309
		c7-16.333,10.5-33.833,10.5-52.5c0-19.333-3.5-37.167-10.5-53.5c-6.616-15.437-15.763-29.237-27.441-41.398
		C351.382,160.896,429.365,83.795,430.041,84.448z"/>
</g>
</svg>
