<?xml version="1.0" encoding="utf-8"?>
<!-- Generator: Adobe Illustrator 19.0.0, SVG Export Plug-In . SVG Version: 6.00 Build 0)  -->
<svg version="1.1" xmlns="http://www.w3.org/2000/svg" xmlns:xlink="http://www.w3.org/1999/xlink" x="0px" y="0px"
	 viewBox="0 0 512 512" style="enable-background:new 0 0 512 512;" xml:space="preserve">
<style type="text/css">
	.st0{fill:#010101;}
</style>
<g id="Guide">
</g>
<g id="Crosshair">
	<path id="XMLID_1_" class="st0" d="M480,113.5c12,29.333,18,60.667,18,94c0,34-6.333,65.667-19,95c-12.667,29.333-30,55-52,77
		s-47.667,39.333-77,52s-60.667,19-94,19c-34,0-66-6.333-96-19s-55.667-30-77-52s-38.167-47.667-50.5-77
		c-12.333-29.333-18.5-61-18.5-95c0-33.333,5.667-64.667,17-94l18,7c-12,27.333-18,56.333-18,87s5.833,59.667,17.5,87
		c11.667,27.333,27.5,51,47.5,71s43.833,36,71.5,48s57.167,18,88.5,18c30.667,0,59.5-6,86.5-18s50.333-28,70-48s35.5-43.667,47.5-71
		c12-27.333,18-56.333,18-87s-6-59.667-18-87L480,113.5z"/>
</g>
</svg>
