<?xml version="1.0" encoding="utf-8"?>
<!-- Generator: Adobe Illustrator 19.0.0, SVG Export Plug-In . SVG Version: 6.00 Build 0)  -->
<svg version="1.1" xmlns="http://www.w3.org/2000/svg" xmlns:xlink="http://www.w3.org/1999/xlink" x="0px" y="0px"
	 viewBox="0 0 512 512" style="enable-background:new 0 0 512 512;" xml:space="preserve">
<style type="text/css">
	.st0{fill:#010101;}
</style>
<g id="Guide">
</g>
<g id="Crosshair">
	<path id="XMLID_1_" class="st0" d="M57.1,212.553c0,24,13.333,50.667,40,80c9.333,9.333,37.167,35.333,83.5,78s71.5,66.333,75.5,71
		c4-4,19.5-18,46.5-42s51-46,72-66s34.833-33.667,41.5-41c21.333-28,34.333-54.667,39-80c2-13.333,2.333-28.167,1-44.5
		s-3.333-26.833-6-31.5c-2-4-4.167-7.833-6.5-11.5s-3.833-6-4.5-7s-1.833-2.5-3.5-4.5s-3.333-3.833-5-5.5s-3.833-3.5-6.5-5.5
		s-6.333-5-11-9c-12-9.333-29.5-14.667-52.5-16s-39.833,1-50.5,7c-26,13.333-44,29.667-54,49c-0.667-0.667-2.667-3.333-6-8l-8-9
		c-0.667-1.333-2.667-3.667-6-7s-5.833-5.667-7.5-7s-3.833-3.167-6.5-5.5s-5.667-4.333-9-6s-7-3.833-11-6.5c-32-16-66-13-102,9
		c-16.667,9.333-28.667,25.333-36,48c-3.333,6-5.333,12.5-6,19.5c-0.667,7-1,12.667-1,17v18V212.553z"/>
</g>
</svg>
