<?xml version="1.0" standalone="no"?>
<!DOCTYPE svg PUBLIC "-//W3C//DTD SVG 1.1//EN" "http://www.w3.org/Graphics/SVG/1.1/DTD/svg11.dtd" >
<svg xmlns="http://www.w3.org/2000/svg" xmlns:xlink="http://www.w3.org/1999/xlink" version="1.1" viewBox="-10 0 586 512">
   <path fill="currentColor"
d="M467 73q33 33 53.5 79t20.5 99t-20.5 98t-53.5 80l-15 -14q32 -31 50 -73.5t18 -90.5t-18 -90.5t-50 -74.5zM110 429q-35 -35 -55 -80t-20 -98t20 -99t55 -79l13 13q-31 32 -49 74.5t-18 90.5t18 90.5t49 73.5zM316 251q0 12 -8.5 20.5t-20 8.5t-20 -8.5t-8.5 -20.5
t8.5 -20.5t20 -8.5t20 8.5t8.5 20.5z" />
</svg>
