<?xml version="1.0" standalone="no"?>
<!DOCTYPE svg PUBLIC "-//W3C//DTD SVG 1.1//EN" "http://www.w3.org/Graphics/SVG/1.1/DTD/svg11.dtd" >
<svg xmlns="http://www.w3.org/2000/svg" xmlns:xlink="http://www.w3.org/1999/xlink" version="1.1" viewBox="-10 0 557 512">
   <path fill="currentColor"
d="M207 354v5q-2 4 -2 5q2 5 -1 7q-5 3 -7 4q-1 1 -10 8q-10 6 -11.5 8t-7.5 12q-5 5 -11 10q-9 6 -15 8h-7q-3 0 -5.5 -0.5t-6.5 -2.5q-2 -2 -2 -1q-18 -8 -26 -14q-11 -9 -17 -17q-9 -8 -11 -11q-3 -5 -5 -5q-12 -8 -22 -64q-5 -30 -5 -54v-7v-8q-1 -10 2 -24q2 -14 1 -14
q12 -43 29 -69q14 -23 28 -34q13 -9 21 -10l10 -1q42 13 56 24q16 13 17 14q2 6 6 14q6 14 8 17q3 7 2 9q0 2 -6 -6q-11 -14 -27 -24l-14 -10q-7 -5 -21 -9q-13 -2 -19 -2h-12l-5 1q-10 9 -14 19q-2 4 -9 22q-1 5 -6 19q-2 8 -3 8l-3 15q-3 11 -4 31q-1 11 -1 22t1 25
q1 27 9 53q9 30 18 43q11 13 22 16q7 2 12 2q8 0 12 -1l31 -17q12 -7 20.5 -12t10.5 -4zM341 354l9 5q16 7 22 11l30 17q6 1 11 1l15 -2q10 -4 19 -16q10 -13 19 -43q7 -26 9 -53v-25q0 -12 -0.5 -21.5t-3.5 -31.5q-2 -8 -4 -15q-1 -2 -2 -7l-5 -20q-6 -14 -10 -22
q-6 -11 -15 -19l-4 -1h-13l-19 2l-20 9q-7 4 -15 10q-7 4 -25 24q-8 8 -8 6q0 -1 3 -10q1 -3 7 -16q4 -6 7 -14q2 -1 17 -13q16 -12 55 -25q1 0 10 1q6 1 22 11q13 10 28 33.5t28 68.5l2 14q2 12 2 32q0 4 -1 7q0 27 -5 54q-11 53 -22 64q0 1 -4 5q-6 8 -11 12q-5 5 -17 14
q-11 9 -27 16q0 -1 -2 1q-1 1 -6 3h-6.5h-4.5q-7 -2 -17 -8l-10 -10q-2 -4 -8 -12t-21 -16q-10 -4 -9 -11q1 -3 0 -5v-5zM255 258q0 -8 5.5 -14t14.5 -6t15 6t6 14t-6 14t-15 6t-14.5 -6t-5.5 -14z" />
</svg>
