<?xml version="1.0" standalone="no"?>
<!DOCTYPE svg PUBLIC "-//W3C//DTD SVG 1.1//EN" "http://www.w3.org/Graphics/SVG/1.1/DTD/svg11.dtd" >
<svg xmlns="http://www.w3.org/2000/svg" xmlns:xlink="http://www.w3.org/1999/xlink" version="1.1" viewBox="-10 0 574 512">
   <path fill="currentColor"
d="M141 80h2q9 0 47 23q13 9 37 34q15 22 15 31v1q0 5 -4 5h-4q-33 -35 -49 -44q-31 -15 -39 -15h-5q-11 0 -17 11q-33 70 -33 139q0 68 35 127q9 8 17 8h3q11 0 22 -11q30 -23 66 -41q6 2 6 6v1q0 16 -66 70q-11 12 -31 12q-15 0 -35 -7q-26 -21 -44 -51q-15 -29 -28 -63
v-93q0 -36 44 -105q33 -38 61 -38zM421 79l2 1q33 0 66 45q39 66 39 98v92q0 8 -28 62q-31 52 -55 57l-24 3q-25 0 -36 -16q-61 -48 -61 -66v-1q0 -6 6 -6q55 31 77 50q5 2 11 2h3q17 0 26 -24q26 -54 26 -111q0 -74 -35 -144q-11 -6 -15 -6h-5q-8 0 -41 16q-18 13 -44 40
q0 2 -3 3h-4q-7 0 -7 -5v-1q7 -24 42 -54q24 -19 42 -28q13 -7 18 -7z" />
</svg>
