<?xml version="1.0" standalone="no"?>
<!DOCTYPE svg PUBLIC "-//W3C//DTD SVG 1.1//EN" "http://www.w3.org/Graphics/SVG/1.1/DTD/svg11.dtd" >
<svg xmlns="http://www.w3.org/2000/svg" xmlns:xlink="http://www.w3.org/1999/xlink" version="1.1" viewBox="-10 0 624 512">
   <path fill="currentColor"
d="M476 81q74 0 104 182v2q0 112 -105 167h-7q-31 0 -68 -50v-3q39 38 71 38q76 -42 76 -154q-12 -168 -79 -168h-9q-9 0 -55 21q33 -35 72 -35zM209 116q-45 -21 -55 -21h-9q-66 0 -78 168q0 112 75 154q32 0 72 -38v3q-38 50 -69 50h-9q-102 -55 -102 -167v-2
q29 -182 102 -182q40 0 73 35z" />
</svg>
