<?xml version="1.0" standalone="no"?>
<!DOCTYPE svg PUBLIC "-//W3C//DTD SVG 1.1//EN" "http://www.w3.org/Graphics/SVG/1.1/DTD/svg11.dtd" >
<svg xmlns="http://www.w3.org/2000/svg" xmlns:xlink="http://www.w3.org/1999/xlink" version="1.1" viewBox="-10 0 532 512">
   <path fill="currentColor"
d="M83 113q-18 23 -30 52q-18 42 -18 88q0 47 18 88t48.5 71t72.5 49l23 -57q-30 -12 -52.5 -34t-35 -52.5t-12.5 -64.5t12 -64q7 -16 17 -31zM395 154l44 -41q18 21 30 52q18 46 18 88q0 47 -17.5 88t-48.5 72t-73 48l-23 -57q29 -12 51.5 -34t35.5 -52.5t13 -64.5
q0 -43 -8 -60q-11 -24 -22 -39zM324 102l24 -57q33 13 59 35l-45 44q-15 -13 -38 -22zM157 125q18 -14 40 -23l-23 -57q-32 13 -61 36z" />
</svg>
