<?xml version="1.0" standalone="no"?>
<!DOCTYPE svg PUBLIC "-//W3C//DTD SVG 1.1//EN" "http://www.w3.org/Graphics/SVG/1.1/DTD/svg11.dtd" >
<svg xmlns="http://www.w3.org/2000/svg" xmlns:xlink="http://www.w3.org/1999/xlink" version="1.1" viewBox="-10 0 573 512">
   <path fill="currentColor"
d="M177 359q-20 -21 -31.5 -48t-11.5 -58t11.5 -58t31.5 -46l8 8q-19 19 -29.5 43.5t-10.5 52.5q0 29 10.5 53.5t29.5 43.5zM377 350q19 -19 29.5 -43.5t10.5 -53.5t-10.5 -53t-29.5 -43l9 -8q20 19 31.5 46.5t11.5 57.5q0 31 -11.5 58t-31.5 46zM456 79q33 33 52.5 78
t19.5 96q0 52 -20 96q-19 45 -52 78l-15 -13q31 -30 48.5 -72t17.5 -89t-17.5 -88.5t-48.5 -72.5zM107 427q-35 -33 -53.5 -77.5t-18.5 -96.5q0 -51 19 -96q18 -45 53 -78l13 13q-31 31 -48.5 72.5t-17.5 88.5t17.5 89t48.5 72z" />
</svg>
