<?xml version="1.0" standalone="no"?>
<!DOCTYPE svg PUBLIC "-//W3C//DTD SVG 1.1//EN" "http://www.w3.org/Graphics/SVG/1.1/DTD/svg11.dtd" >
<svg xmlns="http://www.w3.org/2000/svg" xmlns:xlink="http://www.w3.org/1999/xlink" version="1.1" viewBox="-10 0 574 512">
   <path fill="currentColor"
d="M112 75l91 93l-6 6l-93 -94zM206 341l-94 92l-7 -7l94 -93zM186 157q-19 19 -29.5 43t-10.5 53t10.5 53.5t29.5 42.5l-9 10q-20 -20 -31.5 -48t-11.5 -57q0 -31 11.5 -58.5t31.5 -47.5zM108 427q-34 -33 -53.5 -77.5t-19.5 -95.5q0 -53 20 -97q19 -44 53 -78l14 13
q-31 31 -48.5 73t-17.5 89q0 46 17.5 87.5t48.5 72.5zM452 432l-91 -93l6 -7l93 94zM358 165l94 -91l7 6l-94 93zM178 359q-20 -20 -31.5 -47.5t-11.5 -58.5t11.5 -58t31.5 -47l8 9q-19 19 -29.5 43.5t-10.5 52.5q0 29 10.5 53.5t29.5 43.5zM378 350q19 -19 29.5 -43.5
t10.5 -53.5t-10.5 -53t-29.5 -43l9 -9q20 20 31.5 47.5t11.5 57.5q0 31 -11.5 58.5t-31.5 47.5zM456 79q34 34 53.5 78.5t19.5 95.5q0 52 -20 96q-19 45 -53 78l-14 -12q31 -31 48.5 -73t17.5 -89q0 -46 -17.5 -88t-48.5 -73zM108 427q-34 -33 -53 -77.5t-19 -96.5t19 -96
t53 -78l13 13q-31 31 -48.5 73t-17.5 88q0 47 17.5 89t48.5 73z" />
</svg>
