<?xml version="1.0" standalone="no"?>
<!DOCTYPE svg PUBLIC "-//W3C//DTD SVG 1.1//EN" "http://www.w3.org/Graphics/SVG/1.1/DTD/svg11.dtd" >
<svg xmlns="http://www.w3.org/2000/svg" xmlns:xlink="http://www.w3.org/1999/xlink" version="1.1" viewBox="-10 0 555 512">
   <path fill="currentColor"
d="M499 129q-4 -14 -20 -36.5t-23 -22.5l-2 -1l-80 81l58 -35q7 0 18 19t22 52.5t11 67.5q0 80 -51 138l-58 -33l82 79q5 0 22.5 -23t20.5 -36l-9 -20q20 -44 20 -105q0 -26 -4.5 -52.5t-9.5 -38.5l-6 -13q-1 -4 2 -9.5t5 -8.5zM55 359q-20 -44 -20 -105q0 -26 4.5 -52.5
t9.5 -38.5l6 -13q0 -5 -4.5 -11.5t-4.5 -9.5q4 -14 20 -36.5t23 -22.5l2 -1l77 84l-55 -38q-7 0 -18 19t-22 52.5t-11 67.5q0 80 51 138l55 -37l-79 83q-5 0 -22.5 -23t-20.5 -36z" />
</svg>
