<?xml version="1.0" standalone="no"?>
<!DOCTYPE svg PUBLIC "-//W3C//DTD SVG 1.1//EN" "http://www.w3.org/Graphics/SVG/1.1/DTD/svg11.dtd" >
<svg xmlns="http://www.w3.org/2000/svg" xmlns:xlink="http://www.w3.org/1999/xlink" version="1.1" viewBox="-10 0 483 512">
   <path fill="currentColor"
d="M130 58q50 -27 110 -27q28 0 55.5 7t49.5 19l-15 18q-22 -9 -44 -15t-46 -6q-27 0 -50 6t-45 16zM139 467q-42 -19 -73 -53.5t-44 -80.5l20 -4q15 40 42.5 70.5t65.5 48.5zM451 348q-15 42 -47 73.5t-72 50.5l-11 -21q35 -15 64 -43.5t44 -66.5zM266 277.5
q0 11.5 -7.5 20t-18.5 8.5t-19 -8.5t-8 -20t8 -19t19 -7.5t18.5 7.5t7.5 19z" />
</svg>
