<?xml version="1.0" standalone="no"?>
<!DOCTYPE svg PUBLIC "-//W3C//DTD SVG 1.1//EN" "http://www.w3.org/Graphics/SVG/1.1/DTD/svg11.dtd" >
<svg xmlns="http://www.w3.org/2000/svg" xmlns:xlink="http://www.w3.org/1999/xlink" version="1.1" viewBox="-10 0 546 512">
   <path fill="currentColor"
d="M503 264h-74q-3 30 -15.5 56.5t-32 46t-45.5 32t-56 14.5v75h-24v-75q-30 -2 -56.5 -14.5t-46 -32t-31.5 -46t-15 -56.5h-74v-24h74q3 -30 15 -56.5t31.5 -45.5t46 -31.5t56.5 -15.5v-74h24v74q30 3 56 15.5t45.5 31.5t32 45.5t15.5 56.5h74v24zM280 383q23 -1 44 -11
t37 -26t26.5 -37t12.5 -45h-45v-24h45q-2 -24 -12.5 -44.5t-26.5 -36.5t-37 -26t-44 -13v45h-24v-45q-24 3 -44.5 13t-37 26t-26.5 36.5t-12 44.5h45v24h-45q2 24 12 45t26.5 37t37 26t44.5 11v-44h24v44zM256 240h24v24h-24v-24z" />
</svg>
