<?xml version="1.0" encoding="utf-8"?>
<!-- Generator: Adobe Illustrator 19.0.0, SVG Export Plug-In . SVG Version: 6.00 Build 0)  -->
<svg version="1.1" xmlns="http://www.w3.org/2000/svg" xmlns:xlink="http://www.w3.org/1999/xlink" x="0px" y="0px"
	 viewBox="0 0 512 512" enable-background="new 0 0 512 512" xml:space="preserve">
<g id="Guide">
</g>
<g id="Crosshair">
	<path id="XMLID_2_" fill="#010101" d="M105,396c2.7,4.7,3.2,9.3,1.5,14s-4.8,8.3-9.5,11c-4,1.3-8.7,2-14,2s-10.3-3.7-15-11
		c-7.3-8.7-13.7-17.3-19-26c-7.3-12.7-14-26.3-20-41c-6.7-15.3-11.7-32.7-15-52c-4-17.3-4.7-37-2-59c1.3-20.7,6.7-42.7,16-66
		c9.3-22.7,23.7-45.7,43-69c5.3-6.7,10.3-10,15-10c6,0,11.3,1.3,16,4c3.3,3.3,5.3,7.7,6,13s-0.3,11-3,17c-12.7,18-22.3,37.3-29,58
		c-6,20-9.8,38-11.5,54s-1.8,32.7-0.5,50c4,18.7,7.3,33,10,43c4.7,12,10,24.3,16,37L105,396z M407,116c-2.7-4.7-3.2-9.3-1.5-14
		s4.8-8.3,9.5-11c4-1.3,8.7-2,14-2s10.3,3.7,15,11c7.3,8.7,13.7,17.3,19,26c7.3,12.7,14,26.3,20,41c6.7,15.3,11.7,32.7,15,52
		c4,17.3,4.7,37,2,59c-1.3,20.7-6.7,42.7-16,66c-9.3,22.7-23.7,45.7-43,69c-5.3,6.7-10.3,10-15,10c-6,0-11.3-1.3-16-4
		c-3.3-3.3-5.3-7.7-6-13s0.3-11,3-17c12.7-18,22.3-37.3,29-58c6-20,9.8-38,11.5-54s1.8-32.7,0.5-50c-4-18.7-7.3-33-10-43
		c-4.7-12-10-24.3-16-37L407,116z"/>
</g>
</svg>
