<?xml version="1.0" encoding="utf-8"?>
<!-- Generator: Adobe Illustrator 19.0.0, SVG Export Plug-In . SVG Version: 6.00 Build 0)  -->
<svg version="1.1" xmlns="http://www.w3.org/2000/svg" xmlns:xlink="http://www.w3.org/1999/xlink" x="0px" y="0px"
	 viewBox="0 0 512 512" style="enable-background:new 0 0 512 512;" xml:space="preserve">
<style type="text/css">
	.st0{fill:#010101;}
</style>
<g id="Guide">
</g>
<g id="Crosshair">
	<path class="st0" d="M494.5,264h-26c0,28.7-5.5,55.2-16.5,79.5s-25.7,45.8-44,64.5s-40,33.5-65,44.5s-51.5,16.8-79.5,17.5v25h-17
		v-25c-28-1.3-54.2-7.5-78.5-18.5s-46-25.8-65-44.5s-34-40.2-45-64.5S41.5,292,41.5,264h-24v-16h24c1.3-28,7.5-54.2,18.5-78.5
		s25.7-45.8,44-64.5s39.7-33.5,64-44.5s50.5-17.2,78.5-18.5V17h17v25c28,1.3,54.5,7.5,79.5,18.5s46.7,25.8,65,44.5s33,40.2,44,64.5
		s16.5,50.5,16.5,78.5h26V264z M444.5,248c-2-24.7-7.7-47.7-17-69s-22.2-40-38.5-56s-35-29-56-39s-44.2-15.3-69.5-16v15
		c22,0.7,43,5.7,63,15s37.3,21.2,52,35.5s26.3,31.3,35,51s13.7,40.8,15,63.5H444.5z M254.5,412c22,0,42.7-4,62-12
		s35.8-19.2,49.5-33.5s24.7-30.8,33-49.5s12.5-38.7,12.5-60c0-22-4.2-42.5-12.5-61.5s-19.3-35.7-33-50S335.8,120,316.5,112
		s-40-12-62-12s-42.2,4-60.5,12s-34.8,19.2-49.5,33.5s-26,31-34,50s-12,39.5-12,61.5c0,21.3,4,41.3,12,60s19.3,35.2,34,49.5
		S175.7,392,194,400S232.5,412,254.5,412z M246.5,68c-24,0.7-46.5,6-67.5,16s-39.7,23-56,39s-29.7,34.8-40,56.5S66.8,224,65.5,248
		h18c1.3-22,6.3-42.8,15-62.5s20.3-36.8,35-51.5s31.7-26.7,51-36s40-14.3,62-15V68z M65.5,264c1.3,24.7,7.2,47.7,17.5,69
		s23.7,40,40,56s35,29,56,39s43.5,15.3,67.5,16v-15c-22-2-42.7-7.3-62-16s-36.3-20.3-51-35s-26.3-31.8-35-51.5S84.8,286,83.5,264
		H65.5z M263.5,444c25.3-0.7,48.5-6,69.5-16s39.7-23,56-39s29.7-34.7,40-56s15.5-44.3,15.5-69h-16c-1.3,22-6.3,42.8-15,62.5
		s-20.3,36.8-35,51.5s-32,26.3-52,35s-41,14-63,16V444z"/>
</g>
</svg>
