<?xml version="1.0" encoding="utf-8"?>
<!-- Generator: Adobe Illustrator 19.0.0, SVG Export Plug-In . SVG Version: 6.00 Build 0)  -->
<svg version="1.1" xmlns="http://www.w3.org/2000/svg" xmlns:xlink="http://www.w3.org/1999/xlink" x="0px" y="0px"
	 viewBox="0 0 512 512" style="enable-background:new 0 0 512 512;" xml:space="preserve">
<style type="text/css">
	.st0{fill:#010101;}
</style>
<g id="Guide">
</g>
<g id="Crosshair">
	<path id="XMLID_1_" class="st0" d="M256,197.5h5.5h4.5c1.333-2,2.333-4.667,3-8s2-7,4-11c1.333,4,1.667,8.833,1,14.5
		s-0.333,11.167,1,16.5c1.333,1.333,3,2.5,5,3.5s5.333,1.167,10,0.5s8.833-1.333,12.5-2s6.833-1.333,9.5-2
		c7.333-1.333,13.667-4.5,19-9.5s9.333-14.167,12-27.5h172c-62,24-88,58.333-78,103c-21.333-1.333-42-1.5-62-0.5
		s-37.667,4.5-53,10.5S293.167,300,281.5,311s-19.833,25.167-24.5,42.5c-6-17.333-14.833-31.5-26.5-42.5
		c-11.667-11-25.167-19.5-40.5-25.5s-33-9.5-53-10.5s-40.667-0.833-62,0.5c10-44.667-16-79-78-103h172
		c2.667,13.333,6.667,22.5,12,27.5s11.667,8.167,19,9.5c2.667,0.667,5.833,1.333,9.5,2s7.833,1.333,12.5,2s8,0.5,10-0.5
		s3.667-2.167,5-3.5c1.333-5.333,1.667-10.833,1-16.5s-0.333-10.5,1-14.5c2,4,3.333,7.667,4,11s1.667,6,3,8h4.5H256z"/>
</g>
</svg>
