<?xml version="1.0" encoding="utf-8"?>
<!-- Generator: Adobe Illustrator 19.0.0, SVG Export Plug-In . SVG Version: 6.00 Build 0)  -->
<svg version="1.1" xmlns="http://www.w3.org/2000/svg" xmlns:xlink="http://www.w3.org/1999/xlink" x="0px" y="0px"
	 viewBox="0 0 512 512" style="enable-background:new 0 0 512 512;" xml:space="preserve">
<style type="text/css">
	.st0{fill:#010101;}
</style>
<g id="Guide">
</g>
<g id="Crosshair">
	<path class="st0" d="M42.929,207.952v-17v-19c0,0,0.333-6.167,1-18.5c0.667-12.333,2.667-19.5,6-21.5
		c8.667-23.333,21.667-40.333,39-51c38-24,74.333-27.333,109-10c4,2.667,7.833,5,11.5,7s6.833,4.333,9.5,7s5,4.667,7,6
		s4.667,3.833,8,7.5s5.5,6.167,6.5,7.5s3.5,4.333,7.5,9s6.333,7.333,7,8c10.667-20,30.333-37.333,59-52
		c10-6.667,27.333-9.167,52-7.5s43.667,7.5,57,17.5c4.667,4,8.333,7,11,9s5.167,4,7.5,6s4,4,5,6s2.167,3.833,3.5,5.5
		s3.167,4.333,5.5,8s4.167,7.167,5.5,10.5c4,5.333,6.5,16.667,7.5,34s0.833,33.333-0.5,48c-5.333,27.333-19.667,55.667-43,85
		c-6.667,7.333-21.167,21.667-43.5,43s-47.833,45-76.5,71s-45.333,41-50,45c-4-4.667-30.833-29.667-80.5-75s-79.167-73.333-88.5-84
		C57.262,261.618,42.929,233.285,42.929,207.952z M62.929,212.952c0,22.667,12.667,48.333,38,77c9.333,9.333,36.333,34.667,81,76
		s69,64,73,68c4-3.333,19-16.833,45-40.5s49.333-45,70-64s33.667-32.167,39-39.5c21.333-27.333,34.333-53,39-77
		c2-14,2.333-28.833,1-44.5s-3.667-25.833-7-30.5c-1.333-2.667-3-5.833-5-9.5s-3.5-6.167-4.5-7.5c-1-1.333-2.167-3-3.5-5
		s-3-3.667-5-5s-4.167-3.167-6.5-5.5s-5.833-5.167-10.5-8.5c-11.333-9.333-28.333-14.5-51-15.5s-38.667,1.5-48,7.5
		c-25.333,12.667-43,28-53,46c-0.667-0.667-2.667-3-6-7l-7-8c-1.333-2-3.5-4.5-6.5-7.5s-5.333-5.167-7-6.5s-3.833-3.167-6.5-5.5
		s-5.5-4.5-8.5-6.5s-6.167-3.667-9.5-5c-32-16-65.333-13.333-100,8c-16.667,10-28.667,25.667-36,47c-2,6-3.5,12.167-4.5,18.5
		c-1,6.333-1.5,11.833-1.5,16.5s0.167,10.833,0.5,18.5S62.929,210.285,62.929,212.952z"/>
</g>
</svg>
