<?xml version="1.0" encoding="utf-8"?>
<!-- Generator: Adobe Illustrator 19.0.0, SVG Export Plug-In . SVG Version: 6.00 Build 0)  -->
<svg version="1.1" xmlns="http://www.w3.org/2000/svg" xmlns:xlink="http://www.w3.org/1999/xlink" x="0px" y="0px"
	 viewBox="0 0 512 512" style="enable-background:new 0 0 512 512;" xml:space="preserve">
<style type="text/css">
	.st0{fill:#010101;}
</style>
<g id="Guide">
</g>
<g id="Crosshair">
	<path id="XMLID_7_" class="st0" d="M40.167,240c1.333-27.333,7.5-52.833,18.5-76.5s25.667-44.5,44-62.5s39.333-32.333,63-43
		s48.5-17.333,74.5-20v40c-20,2-39.667,7.5-59,16.5s-35.833,20.5-49.5,34.5s-25.333,30.333-35,49s-15.167,39.333-16.5,62H40.167z
		 M273.167,38c26.667,2.667,52.167,9.333,76.5,20s45.167,25,62.5,43s31.5,38.833,42.5,62.5s18.167,49.167,21.5,76.5h-40
		c-2.667-22.667-8.5-43.333-17.5-62s-20.833-35-35.5-49s-31.167-25.5-49.5-34.5s-38.5-14.5-60.5-16.5V38z M476.167,272
		c-3.333,27.333-10.5,52.833-21.5,76.5s-25.167,44.167-42.5,61.5s-38.167,31.667-62.5,43s-49.833,18.333-76.5,21v-39
		c22-2,42.167-7.667,60.5-17s34.833-21,49.5-35s26.5-30.667,35.5-50s14.833-39.667,17.5-61H476.167z M240.167,474
		c-26-2.667-50.833-9.667-74.5-21s-44.667-25.667-63-43s-33-37.833-44-61.5S41.5,299.333,40.167,272h40
		c1.333,21.333,6.833,41.667,16.5,61s21.333,36,35,50s30.167,25.667,49.5,35s39,15,59,17V474z M272,272h-31.833v-32H272V272z"/>
</g>
</svg>
