<?xml version="1.0" encoding="utf-8"?>
<!-- Generator: Adobe Illustrator 19.0.0, SVG Export Plug-In . SVG Version: 6.00 Build 0)  -->
<svg version="1.1" xmlns="http://www.w3.org/2000/svg" xmlns:xlink="http://www.w3.org/1999/xlink" x="0px" y="0px"
	 viewBox="0 0 512 512" style="enable-background:new 0 0 512 512;" xml:space="preserve">
<style type="text/css">
	.st0{fill:#010101;}
</style>
<g id="Guide">
</g>
<g id="Crosshair">
	<path class="st0" d="M162.5,351c16,16,35.667,27.667,59,35c12,2.667,23.833,4,35.5,4c11.667,0,23.5-1.333,35.5-4
		c23.333-7.333,43-19,59-35c16-16.667,27.667-36.667,35-60c3.333-11.333,5-23,5-35s-1.667-23.667-5-35
		c-7.333-23.333-19-43.333-35-60c-16-16-35.667-27.667-59-35c-12-2.667-23.833-4-35.5-4c-11.667,0-23.5,1.667-35.5,5
		c-23.333,6.667-43,18-59,34c-16,16.667-27.667,36.667-35,60c-3.333,11.333-5,23.333-5,36c0,11.333,1.667,22.333,5,33
		C133.5,314,145.167,334.333,162.5,351z M94.5,144l-71-72l49-49l70,71c19.333-11.333,40-20.333,62-27c17.333-6,35-9,53-9
		c16,0,32.667,2.667,50,8c23.333,6.667,44,16,62,28l70-71l49,49l-71,71c13.333,18,23,38.333,29,61c6,17.333,9,34.667,9,52
		c0,16.667-3,34-9,52c-6,22.667-15.667,43-29,61l71,71l-49,49l-70-71c-18,12-38.667,21.333-62,28c-16,5.333-32.667,8-50,8
		c-18,0-35-2.667-51-8c-23.333-6.667-44.667-16-64-28l-70,71l-49-49l71-71c-12-18-21.667-38.667-29-62c-4-17.333-6-34.333-6-51
		c0-17.333,2.667-35,8-53C73.5,181,82.5,161.333,94.5,144z"/>
</g>
</svg>
