<?xml version="1.0" encoding="utf-8"?>
<!-- Generator: Adobe Illustrator 19.0.0, SVG Export Plug-In . SVG Version: 6.00 Build 0)  -->
<svg version="1.1" xmlns="http://www.w3.org/2000/svg" xmlns:xlink="http://www.w3.org/1999/xlink" x="0px" y="0px"
	 viewBox="0 0 512 512" style="enable-background:new 0 0 512 512;" xml:space="preserve">
<style type="text/css">
	.st0{fill:#010101;}
</style>
<g id="Guide">
</g>
<g id="Crosshair">
	<path class="st0" d="M25.5,256c0-32,5.833-62.167,17.5-90.5S71.167,112.333,92.5,91s46.333-38,75-50s58.333-18,89-18
		c34,0,64.833,6,92.5,18s52.167,28.667,73.5,50s38.333,46.167,51,74.5s19,58.5,19,90.5s-6.333,62.167-19,90.5
		s-29.667,53.167-51,74.5s-45.833,38-73.5,50s-58.5,18-92.5,18c-30.667,0-60.333-6-89-18s-53.667-28.667-75-50
		S54.667,374.833,43,346.5S25.5,288,25.5,256z M43.5,256c0,30,5.5,58,16.5,84s26.333,48.833,46,68.5s42.333,34.833,68,45.5
		s53.167,16,82.5,16c30.667,0,59-5.333,85-16s48.833-25.833,68.5-45.5s35-42.5,46-68.5s16.5-54,16.5-84s-5.5-57.833-16.5-83.5
		s-26-48.167-45-67.5s-41.833-34.667-68.5-46s-55.333-17-86-17c-29.333,0-56.833,5.667-82.5,17s-48.333,26.667-68,46
		s-35,41.833-46,67.5S43.5,226,43.5,256z"/>
	<circle id="XMLID_4_" class="st0" cx="256" cy="256" r="26"/>
</g>
</svg>
