<?xml version="1.0" encoding="utf-8"?>
<!-- Generator: Adobe Illustrator 19.0.0, SVG Export Plug-In . SVG Version: 6.00 Build 0)  -->
<svg version="1.1" xmlns="http://www.w3.org/2000/svg" xmlns:xlink="http://www.w3.org/1999/xlink" x="0px" y="0px"
	 viewBox="0 0 512 512" style="enable-background:new 0 0 512 512;" xml:space="preserve">
<style type="text/css">
	.st0{fill:#010101;}
</style>
<g id="Guide">
	<path class="st0" d="M257,25c33,0,62.833,6,89.5,18c29.333,12.667,54,29,74,49c20.667,21.333,37.333,45.5,50,72.5
		s19,57.833,19,92.5c0,33.333-6.667,63.333-20,90c-13.333,28.667-29.667,53-49,73c-20,20.667-44,37-72,49
		c-29.333,13.333-59.833,20-91.5,20s-62.833-6.667-93.5-20c-28-12-52.333-28.333-73-49c-20-21.333-36-45.667-48-73
		c-12-28.667-18-58.667-18-90c0-33.333,6-64,18-92c12-26,29-50.333,51-73c20-20,44-36.333,72-49C193.5,31,224,25,257,25z M255.5,426
		c22,0,44-4.333,66-13c20.667-8,39.167-20,55.5-36s28.833-34.333,37.5-55c8.667-22,13-44,13-66c0-22.667-4.333-44.667-13-66
		c-8.667-20.667-21.333-39-38-55c-12.667-14.667-31-26.667-55-36c-22-9.333-44-14-66-14c-20,0-42,4.667-66,14
		c-22,9.333-40.333,21.333-55,36c-16,16-28.333,34.333-37,55c-8.667,21.333-13,43.333-13,66c0,22,4.333,44,13,66
		c8.667,20.667,21.167,39,37.5,55s34.5,28,54.5,36C213.5,421.667,235.5,426,255.5,426z"/>
</g>
<g id="Crosshair">
</g>
</svg>
