<?xml version="1.0" encoding="utf-8"?>
<!-- Generator: Adobe Illustrator 19.0.0, SVG Export Plug-In . SVG Version: 6.00 Build 0)  -->
<svg version="1.1" xmlns="http://www.w3.org/2000/svg" xmlns:xlink="http://www.w3.org/1999/xlink" x="0px" y="0px"
	 viewBox="0 0 512 512" style="enable-background:new 0 0 512 512;" xml:space="preserve">
<style type="text/css">
	.st0{fill:#010101;}
</style>
<g id="Guide">
	<path class="st0" d="M166.833,286.75l-135-19l3,17c1.333,14.667,5.667,31.333,13,50c8.667,26.667,21.667,49.333,39,68
		c9.333,11.333,18.333,20.333,27,27c7.333,6,11.667,9.5,13,10.5s2.667,1.833,4,2.5c4.667,2,8.333,4.667,11,8
		c14.667,9.333,25,14,31,14l13,6c7.333,2.667,11.833,3.667,13.5,3s3.167-5.333,4.5-14c1.333-12,2-19,2-21l5-25l11-69
		c-6-1.333-16-9-30-23S169.5,296.083,166.833,286.75z M276.833,396.75v-7c2.667-11.333,4-23,4-35c0-3.333,2.333-5.667,7-7
		c7.333-2,16.5-7.167,27.5-15.5s17.833-16.167,20.5-23.5c2.667-4,10-5,22-3c4.667,0,13.333,0.667,26,2l60,7h2h7h7.5
		c0,0,2.167,0.5,6.5,1.5s6.167,1.667,5.5,2s0.167,0.833,2.5,1.5s1.833,1.833-1.5,3.5s-4.167,3.833-2.5,6.5s1.333,4.333-1,5
		c-1.333,5.333-5.333,14.167-12,26.5s-10.333,18.5-11,18.5s-1,2-1,6c0,0.667-0.333,1.333-1,2s-1,0.667-1,0c-3.333-0.667-5-0.333-5,1
		c0,4-5.833,11.833-17.5,23.5s-22.5,21.167-32.5,28.5c-3.333,1.333-5.667,3-7,5l-2,3v1c0-0.667-6,1.667-18,7
		c-26,13.333-50.667,20.667-74,22c-14.667,2-22,2-22,0l4-19L276.833,396.75z M106.833,207.75l-20-4l-11-2
		c-4-0.667-7.833-1.167-11.5-1.5c-3.667-0.333-7.167-0.833-10.5-1.5c-8.667-0.667-13-1.333-13-2s0.667-3,2-7
		c2-3.333,3.667-6.667,5-10c0-1.333,1.333-5.667,4-13c3.333-6.667,5-10.333,5-11s3.667-7,11-19s12.333-20,15-24
		c19.333-21.333,38.333-37.333,57-48c23.333-14,38-21,44-21c1.333,0,5-1.333,11-4s14-4.333,24-5l16-2l10-1c0,0,3.333,2,10,6
		s4.333,16.667-7,38l-2,13c1.333,0,0.667,10.667-2,32l-3,16c-1.333,11.333-2,17.667-2,19c0,0.667-0.667,3.333-2,8
		c0,4-0.667,6.333-2,7c-8.667,3.333-18.167,8.333-28.5,15s-15.5,11.333-15.5,14c0,2-1.167,3-3.5,3s-4.167,2-5.5,6s-4.333,5.667-9,5
		c-2.667,0-8.333-0.667-17-2l-14-2h-5c0,0-3.667-0.333-11-1c-7.333-0.667-11.333-1-12-1H106.833z M313.833,89.75
		c1.333-0.667,2-10.667,2-30c1.333-11.333,3-17.333,5-18c1.333-1.333,7.833,0.5,19.5,5.5s22.5,10.5,32.5,16.5
		c19.333,10,37.833,25.5,55.5,46.5s30.167,40.5,37.5,58.5c1.333,6,4.333,14,9,24c2.667,6,4.333,16.667,5,32s0.333,24-1,26
		c-2.667,1.333-8.667,1.333-18,0c-1.333,0-4.833-0.667-10.5-2s-10.167-2-13.5-2l-17-2c-25.333-3.333-46-6.333-62-9h-2h-2
		c-3.333,0-8-5.667-14-17c-7.333-14.667-17.333-27-30-37c-3.333-2-5-4.333-5-7s0.667-10,2-22L313.833,89.75z M306.833,152.75l7-63
		l-7,35V152.75z"/>
</g>
<g id="Crosshair">
</g>
</svg>
