<?xml version="1.0" encoding="utf-8"?>
<!-- Generator: Adobe Illustrator 19.0.0, SVG Export Plug-In . SVG Version: 6.00 Build 0)  -->
<svg version="1.1" xmlns="http://www.w3.org/2000/svg" xmlns:xlink="http://www.w3.org/1999/xlink" x="0px" y="0px"
	 viewBox="0 0 512 512" style="enable-background:new 0 0 512 512;" xml:space="preserve">
<style type="text/css">
	.st0{fill:#010101;}
</style>
<g id="Guide">
	<path class="st0" d="M254.5,49.5C237.167,49.5,220,52,203,57s-32.833,11.5-47.5,19.5l-13-14c18-9.333,36.167-16.5,54.5-21.5
		s37.5-7.5,57.5-7.5c24,0,46.167,3,66.5,9s39.5,14.667,57.5,26l-14,13c-16-10-33.167-17.833-51.5-23.5S275.167,49.5,254.5,49.5z
		 M50.5,255.5c0,20.667,2.5,40.167,7.5,58.5s12.833,35.5,23.5,51.5l-14,12c-10-17.333-18.333-36.333-25-57s-10-42.333-10-65
		s3.333-44.333,10-65s16-39.667,28-57l13,12c-10.667,16.667-18.833,34-24.5,52S50.5,234.833,50.5,255.5z M461.5,255.5
		c0-18.667-2.5-36.333-7.5-53s-11.167-32.333-18.5-47l13-13c10,16,17.667,33.667,23,53s8,39.333,8,60c0,42-10.333,80-31,114l-13-14
		C452.833,325.5,461.5,292.167,461.5,255.5z M254.5,461.5c20.667,0,40.167-2.833,58.5-8.5s35.5-13.5,51.5-23.5l14,13
		c-18,12-37.167,21-57.5,27s-42.5,9-66.5,9c-40.667,0-78-10.333-112-31l13-13c14.667,8,30.5,14.5,47.5,19.5
		S237.167,461.5,254.5,461.5z"/>
</g>
<g id="Crosshair">
</g>
</svg>
