<?xml version="1.0" encoding="utf-8"?>
<!-- Generator: Adobe Illustrator 19.0.0, SVG Export Plug-In . SVG Version: 6.00 Build 0)  -->
<svg version="1.1" xmlns="http://www.w3.org/2000/svg" xmlns:xlink="http://www.w3.org/1999/xlink" x="0px" y="0px"
	 viewBox="0 0 512 512" style="enable-background:new 0 0 512 512;" xml:space="preserve">
<style type="text/css">
	.st0{fill:#010101;}
</style>
<g id="Guide">
	<path class="st0" d="M256.5,479c-6.667,0-11.833-1.833-15.5-5.5s-5.5-8.5-5.5-14.5c0-5.333,2-10,6-14c3.333-4,8.333-6,15-6
		c5.333,0,9.667,2,13,6c4.667,4,7,8.667,7,14c0,6-2.333,11-7,15C266.167,477.333,261.833,479,256.5,479z M93.5,439
		c-6,0-11-1.833-15-5.5s-6-8.5-6-14.5s2-10.667,6-14c4-4.667,9-7,15-7c5.333,0,9.667,2.333,13,7c4.667,3.333,7,8,7,14
		s-2.333,10.667-7,14C103.167,437,98.833,439,93.5,439z M418.5,439c-6,0-10.833-1.833-14.5-5.5s-5.5-8.5-5.5-14.5s1.667-10.667,5-14
		c4-4.667,9-7,15-7s10.667,2.333,14,7c4.667,3.333,7,8,7,14s-2.333,10.667-7,14C429.167,437,424.5,439,418.5,439z M53.5,276
		c-6,0-11-1.833-15-5.5s-6-8.5-6-14.5s1.667-10.667,5-14c4.667-4,10-6,16-6c4.667,0,9,2,13,6c4,3.333,6,8,6,14s-2,10.667-6,14
		C62.5,274,58.167,276,53.5,276z M256.5,276c-6.667,0-11.833-1.833-15.5-5.5s-5.5-8.5-5.5-14.5s2-10.667,6-14c3.333-4,8.333-6,15-6
		c5.333,0,9.667,2,13,6c4.667,3.333,7,8,7,14s-2.333,10.667-7,14C266.167,274,261.833,276,256.5,276z M458.5,276
		c-5.333,0-9.833-1.833-13.5-5.5s-5.5-8.5-5.5-14.5s1.667-10.667,5-14c4-4,8.667-6,14-6c6,0,11,2,15,6c4,3.333,6,8,6,14
		s-2,10.667-6,14C469.5,274,464.5,276,458.5,276z M93.5,114c-6,0-11-2-15-6s-6-9-6-15c0-5.333,2-9.667,6-13c4-4.667,9-7,15-7
		c5.333,0,9.667,2.333,13,7c4.667,3.333,7,7.667,7,13c0,6-2.333,10.667-7,14C103.167,111.667,98.833,114,93.5,114z M418.5,114
		c-6,0-10.833-2-14.5-6s-5.5-9-5.5-15c0-5.333,1.667-9.667,5-13c4-4.667,9-7,15-7s10.667,2.333,14,7c4.667,3.333,7,7.667,7,13
		c0,6-2.333,10.667-7,14C429.167,111.667,424.5,114,418.5,114z M256.5,73c-6.667,0-11.833-2-15.5-6s-5.5-8.667-5.5-14s2-10,6-14
		c3.333-4,8.333-6,15-6c5.333,0,9.667,2,13,6c4.667,4,7,8.667,7,14s-2.333,10.333-7,15C266.167,71.333,261.833,73,256.5,73z"/>
</g>
<g id="Crosshair">
</g>
</svg>
