<?xml version="1.0" encoding="utf-8"?>
<!-- Generator: Adobe Illustrator 19.0.0, SVG Export Plug-In . SVG Version: 6.00 Build 0)  -->
<svg version="1.1" xmlns="http://www.w3.org/2000/svg" xmlns:xlink="http://www.w3.org/1999/xlink" x="0px" y="0px"
	 viewBox="0 0 512 512" style="enable-background:new 0 0 512 512;" xml:space="preserve">
<style type="text/css">
	.st0{fill:#010101;}
</style>
<g id="Guide">
</g>
<g id="Crosshair">
	<path class="st0" d="M23.5,256c0-32,6.333-62.167,19-90.5s29.167-53,49.5-74s44.833-37.667,73.5-50s58.333-18.5,89-18.5
		c34,0,64.833,6.167,92.5,18.5s52.167,29,73.5,50s38.333,45.667,51,74s19,58.5,19,90.5s-6.333,62.167-19,90.5s-29.667,53-51,74
		s-45.833,37.667-73.5,50S288.5,489,254.5,489c-30.667,0-60.333-6.167-89-18.5s-53.167-29-73.5-50s-36.833-45.667-49.5-74
		S23.5,288,23.5,256z M41.5,256c0,30,5.5,58,16.5,84s26.333,48.833,46,68.5s42.333,34.833,68,45.5s53.167,16,82.5,16
		c30.667,0,59-5.333,85-16s48.833-25.833,68.5-45.5s35-42.5,46-68.5s16.5-54,16.5-84s-5.5-57.833-16.5-83.5s-26.333-48.167-46-67.5
		s-42.5-34.667-68.5-46s-54.333-17-85-17c-29.333,0-56.833,5.667-82.5,17s-48.333,26.667-68,46s-35,41.833-46,67.5
		S41.5,226,41.5,256z"/>
</g>
</svg>
