<?xml version="1.0" encoding="utf-8"?>
<!-- Generator: Adobe Illustrator 19.0.0, SVG Export Plug-In . SVG Version: 6.00 Build 0)  -->
<svg version="1.1" xmlns="http://www.w3.org/2000/svg" xmlns:xlink="http://www.w3.org/1999/xlink" x="0px" y="0px"
	 viewBox="0 0 512 512" style="enable-background:new 0 0 512 512;" xml:space="preserve">
<style type="text/css">
	.st0{fill:#010101;}
</style>
<g id="Guide">
</g>
<g id="Crosshair">
	<path class="st0" d="M399,122.2c-2.667-5.333-3-10.167-1-14.5s4.833-7.667,8.5-10s8.5-3,14.5-2s11.333,4.167,16,9.5
		c4,6.667,9.667,15.5,17,26.5s14,24,20,39s10.833,31.5,14.5,49.5s4.333,37.167,2,57.5s-7.833,41.5-16.5,63.5s-22.667,44-42,66
		c-4.667,6-9.5,9.167-14.5,9.5s-9.333-1-13-4s-6.167-7.167-7.5-12.5s-0.667-10.667,2-16c13.333-19.333,23-38,29-56
		s10-35.167,12-51.5s2-32,0-47s-5.333-29-10-42s-9.5-25-14.5-36S405,130.867,399,122.2z M111,122.2
		c-4.667,8.667-9.833,18.5-15.5,29.5s-10.833,23-15.5,36s-8,27-10,42s-2.333,30.667-1,47s5.333,33.5,12,51.5s16,36.667,28,56
		c4,5.333,5.333,10.667,4,16c-1.333,5.333-3.833,9.5-7.5,12.5s-8.5,4.333-14.5,4s-11-3.5-15-9.5c-18-22-31.333-44-40-66
		s-14.167-43.167-16.5-63.5s-1.667-39.5,2-57.5s8.833-34.5,15.5-49.5s13.333-28,20-39s13-19.833,19-26.5c4-5.333,8.667-8.5,14-9.5
		s9.833-0.333,13.5,2s6.167,5.667,7.5,10S112.333,116.867,111,122.2z M291,256.2c0,9.333-3.333,17.5-10,24.5s-15,10.5-25,10.5
		s-18.333-3.5-25-10.5s-10-15.167-10-24.5c0-10,3.333-18.5,10-25.5s15-10.5,25-10.5s18.333,3.5,25,10.5S291,246.2,291,256.2z"/>
</g>
</svg>
