<?xml version="1.0" encoding="utf-8"?>
<!-- Generator: Adobe Illustrator 19.0.0, SVG Export Plug-In . SVG Version: 6.00 Build 0)  -->
<svg version="1.1" xmlns="http://www.w3.org/2000/svg" xmlns:xlink="http://www.w3.org/1999/xlink" x="0px" y="0px"
	 viewBox="0 0 512 512" style="enable-background:new 0 0 512 512;" xml:space="preserve">
<style type="text/css">
	.st0{fill:#010101;}
</style>
<g id="Guide">
</g>
<g id="Crosshair">
	<path class="st0" d="M291,212l9,7l-37,37l37,38l-9,8l-35-36l-37,38l-9-9l37-39l-37-37l9-7l37,36L291,212z M21,249
		c0-64,23-119.5,69-166.5S192,12,258,12c63.333,0,118.333,23.5,165,70.5S493,185,493,249c0,66-23.333,122-70,168s-101.667,69-165,69
		c-66,0-122-23-168-69S21,315,21,249z M38,249c0,60,21.333,111.333,64,154s94.667,64,156,64c58.667,0,109.667-21.333,153-64
		s65-94,65-154c0-59.333-21.667-110.5-65-153.5S316.667,31,258,31c-61.333,0-113.333,21.5-156,64.5S38,189.667,38,249z"/>
</g>
</svg>
