<?xml version="1.0" encoding="utf-8"?>
<!-- Generator: Adobe Illustrator 19.0.0, SVG Export Plug-In . SVG Version: 6.00 Build 0)  -->
<svg version="1.1" xmlns="http://www.w3.org/2000/svg" xmlns:xlink="http://www.w3.org/1999/xlink" x="0px" y="0px"
	 viewBox="0 0 512 512" style="enable-background:new 0 0 512 512;" xml:space="preserve">
<style type="text/css">
	.st0{fill:#010101;}
</style>
<g id="Guide">
</g>
<g id="Crosshair">
	<path class="st0" d="M256,153c14.667,0,28,2.333,40,7c12.667,6,23.667,13.333,33,22c10,10,17.5,21,22.5,33s7.5,25.667,7.5,41
		c0,14.667-2.667,28-8,40c-6,12.667-13.333,23.667-22,33c-9.333,9.333-19.667,16.667-31,22c-13.333,5.333-27.333,8-42,8
		c-14.667,0-28.667-2.667-42-8c-11.333-5.333-21.667-12.667-31-22c-10-10-17.333-21-22-33c-5.333-12.667-8-26-8-40
		c0-14.667,2.667-28.333,8-41c4.667-11.333,12-22.333,22-33c9.333-8.667,20.333-16,33-22C228,155.333,241.333,153,256,153z M256,332
		c8.667,0,18.333-2.333,29-7c10-2.667,18.667-7.667,26-15s12.333-15.667,15-25c4.667-10,7-20,7-30c0-9.333-2.333-19-7-29
		c-2.667-9.333-7.667-17.667-15-25c-7.333-6.667-16-11.667-26-15c-10.667-4.667-20.333-7-29-7c-10,0-20.333,2.333-31,7
		c-8.667,3.333-16.667,8.333-24,15c-7.333,7.333-12.333,15.667-15,25c-4.667,10-7,19.667-7,29c0,10,2.333,20,7,30
		c2.667,9.333,7.667,17.667,15,25s15.333,12.333,24,15C235.667,329.667,246,332,256,332z"/>
</g>
</svg>
