<?xml version="1.0" standalone="no"?>
<!DOCTYPE svg PUBLIC "-//W3C//DTD SVG 1.1//EN" "http://www.w3.org/Graphics/SVG/1.1/DTD/svg11.dtd" >
<svg xmlns="http://www.w3.org/2000/svg" xmlns:xlink="http://www.w3.org/1999/xlink" version="1.1" viewBox="-10 0 527 512">
   <path fill="currentColor"
d="M259 477q-10 0 -15.5 -5.5t-5.5 -14.5q0 -8 6 -14q5 -6 15 -6q8 0 13 6q7 6 7 14q0 9 -7 15q-5 5 -13 5zM96 437q-9 0 -15 -5.5t-6 -14.5t6 -14q6 -7 15 -7q8 0 13 7q7 5 7 14t-7 14q-5 6 -13 6zM421 437q-9 0 -14.5 -5.5t-5.5 -14.5t5 -14q6 -7 15 -7t14 7q7 5 7 14
t-7 14q-5 6 -14 6zM56 274q-9 0 -15 -5.5t-6 -14.5t5 -14q7 -6 16 -6q7 0 13 6q6 5 6 14t-6 14q-6 6 -13 6zM259 274q-10 0 -15.5 -5.5t-5.5 -14.5t6 -14q5 -6 15 -6q8 0 13 6q7 5 7 14t-7 14q-5 6 -13 6zM461 274q-8 0 -13.5 -5.5t-5.5 -14.5t5 -14q6 -6 14 -6q9 0 15 6
q6 5 6 14t-6 14q-6 6 -15 6zM96 112q-9 0 -15 -6t-6 -15q0 -8 6 -13q6 -7 15 -7q8 0 13 7q7 5 7 13q0 9 -7 14q-5 7 -13 7zM421 112q-9 0 -14.5 -6t-5.5 -15q0 -8 5 -13q6 -7 15 -7t14 7q7 5 7 13q0 9 -7 14q-5 7 -14 7zM259 71q-10 0 -15.5 -6t-5.5 -14t6 -14q5 -6 15 -6
q8 0 13 6q7 6 7 14t-7 15q-5 5 -13 5z" />
</svg>
