<?xml version="1.0" standalone="no"?>
<!DOCTYPE svg PUBLIC "-//W3C//DTD SVG 1.1//EN" "http://www.w3.org/Graphics/SVG/1.1/DTD/svg11.dtd" >
<svg xmlns="http://www.w3.org/2000/svg" xmlns:xlink="http://www.w3.org/1999/xlink" version="1.1" viewBox="-10 0 550 512">
   <path fill="currentColor"
d="M414 120q-4 -8 -1 -14.5t8.5 -10t14.5 -2t16 9.5q6 10 17 26.5t20 39t14.5 49.5t2 57.5t-16.5 63.5t-42 66q-7 9 -14.5 9.5t-13 -4t-7.5 -12.5t2 -16q20 -29 29 -56t12 -51.5t0 -47t-10 -42t-14.5 -36t-16.5 -29.5zM126 120q-7 13 -15.5 29.5t-15.5 36t-10 42t-1 47
t12 51.5t28 56q6 8 4 16t-7.5 12.5t-14.5 4t-15 -9.5q-27 -33 -40 -66t-16.5 -63.5t2 -57.5t15.5 -49.5t20 -39t19 -26.5q6 -8 14 -9.5t13.5 2t7.5 10t0 14.5zM306 254q0 14 -10 24.5t-25 10.5t-25 -10.5t-10 -24.5q0 -15 10 -25.5t25 -10.5t25 10.5t10 25.5z" />
</svg>
