<?xml version="1.0" standalone="no"?>
<!DOCTYPE svg PUBLIC "-//W3C//DTD SVG 1.1//EN" "http://www.w3.org/Graphics/SVG/1.1/DTD/svg11.dtd" >
<svg xmlns="http://www.w3.org/2000/svg" xmlns:xlink="http://www.w3.org/1999/xlink" version="1.1" viewBox="-10 0 568 512">
   <path fill="currentColor"
d="M430 117q-4 -7 -1.5 -14t9.5 -11q6 -2 14 -2t15 11q11 13 19 26q11 19 20 41q10 23 15 52q6 26 2 59q-2 31 -16 66q-14 34 -43 69q-8 10 -15 10q-9 0 -16 -4q-5 -5 -6 -13t3 -17q19 -27 29 -58q9 -30 11.5 -54t0.5 -50q-6 -28 -10 -43q-7 -18 -16 -37zM129 117
q-10 19 -17 31q-11 22 -15 37q-6 19 -10 44t-1.5 49t13.5 54q9 27 28 58q7 10 5.5 17t-9.5 13q-5 4 -14 4t-16 -10q-28 -34 -43 -69q-13 -33 -16 -66q-2 -30 3 -59q6 -28 16 -52q8 -22 19 -41q5 -5 20 -26q7 -11 15 -11q7 0 14 2q5 3 8.5 10.5t-0.5 14.5z" />
</svg>
