<?xml version="1.0" standalone="no"?>
<!DOCTYPE svg PUBLIC "-//W3C//DTD SVG 1.1//EN" "http://www.w3.org/Graphics/SVG/1.1/DTD/svg11.dtd" >
<svg xmlns="http://www.w3.org/2000/svg" xmlns:xlink="http://www.w3.org/1999/xlink" version="1.1" viewBox="-10 0 545 512">
   <path fill="currentColor"
d="M506 261h-26q0 43 -16.5 79.5t-44 64.5t-65 44.5t-79.5 17.5v25h-17v-25q-42 -2 -78.5 -18.5t-65 -44.5t-45 -64.5t-16.5 -78.5h-24v-16h24q2 -42 18.5 -78.5t44 -64.5t64 -44.5t78.5 -18.5v-25h17v25q42 2 79.5 18.5t65 44.5t44 64.5t16.5 78.5h26v16zM456 245
q-3 -37 -17 -69t-38.5 -56t-56 -39t-69.5 -16v15q33 1 63 15t52 35.5t35 51t15 63.5h16zM266 409q33 0 62 -12t49.5 -33.5t33 -49.5t12.5 -60q0 -33 -12.5 -61.5t-33 -50t-49.5 -33.5t-62 -12t-60.5 12t-49.5 33.5t-34 50t-12 61.5q0 32 12 60t34 49.5t49.5 33.5t60.5 12z
M258 65q-36 1 -67.5 16t-56 39t-40 56.5t-17.5 68.5h18q2 -33 15 -62.5t35 -51.5t51 -36t62 -15v-15zM77 261q2 37 17.5 69t40 56t56 39t67.5 16v-15q-33 -3 -62 -16t-51 -35t-35 -51.5t-15 -62.5h-18zM275 441q38 -1 69.5 -16t56 -39t40 -56t15.5 -69h-16q-2 33 -15 62.5
t-35 51.5t-52 35t-63 16v15z" />
</svg>
