<?xml version="1.0" standalone="no"?>
<!DOCTYPE svg PUBLIC "-//W3C//DTD SVG 1.1//EN" "http://www.w3.org/Graphics/SVG/1.1/DTD/svg11.dtd" >
<svg xmlns="http://www.w3.org/2000/svg" xmlns:xlink="http://www.w3.org/1999/xlink" version="1.1" viewBox="-10 0 510 512">
   <path fill="currentColor"
d="M32 239q2 -41 18.5 -76.5t44 -62.5t63 -43t74.5 -20v40q-30 3 -59 16.5t-49.5 34.5t-35 49t-16.5 62h-40zM265 37q40 4 76.5 20t62.5 43t42.5 62.5t21.5 76.5h-40q-4 -34 -17.5 -62t-35.5 -49t-49.5 -34.5t-60.5 -16.5v-40zM468 271q-5 41 -21.5 76.5t-42.5 61.5
t-62.5 43t-76.5 21v-39q33 -3 60.5 -17t49.5 -35t35.5 -50t17.5 -61h40zM232 473q-39 -4 -74.5 -21t-63 -43t-44 -61.5t-18.5 -76.5h40q2 32 16.5 61t35 50t49.5 35t59 17v39zM265 271h-33v-32h33v32z" />
</svg>
