<?xml version="1.0" standalone="no"?>
<!DOCTYPE svg PUBLIC "-//W3C//DTD SVG 1.1//EN" "http://www.w3.org/Graphics/SVG/1.1/DTD/svg11.dtd" >
<svg xmlns="http://www.w3.org/2000/svg" xmlns:xlink="http://www.w3.org/1999/xlink" version="1.1" viewBox="-10 0 496 512">
   <path fill="currentColor"
d="M30 215v-17v-19t1 -18.5t6 -21.5q13 -35 39 -51q57 -36 109 -10q6 4 11.5 7t9.5 7t7 6t8 7.5t6.5 7.5t7.5 9t7 8q16 -30 59 -52q15 -10 52 -7.5t57 17.5q7 6 11 9t7.5 6t5 6t3.5 5.5t5.5 8t5.5 10.5q6 8 7.5 34t-0.5 48q-8 41 -43 85q-10 11 -43.5 43t-76.5 71t-50 45
q-6 -7 -80.5 -75t-88.5 -84q-43 -47 -43 -85zM50 220q0 34 38 77q14 14 81 76t73 68q6 -5 45 -40.5t70 -64t39 -39.5q32 -41 39 -77q3 -21 1 -44.5t-7 -30.5q-2 -4 -5 -9.5t-4.5 -7.5t-3.5 -5t-5 -5t-6.5 -5.5t-10.5 -8.5q-17 -14 -51 -15.5t-48 7.5q-38 19 -53 46
q-1 -1 -6 -7l-7 -8q-2 -3 -6.5 -7.5t-7 -6.5t-6.5 -5.5t-8.5 -6.5t-9.5 -5q-48 -24 -100 8q-25 15 -36 47q-3 9 -4.5 18.5t-1.5 16.5t0.5 18.5t0.5 15.5z" />
</svg>
