<?xml version="1.0" standalone="no"?>
<!DOCTYPE svg PUBLIC "-//W3C//DTD SVG 1.1//EN" "http://www.w3.org/Graphics/SVG/1.1/DTD/svg11.dtd" >
<svg xmlns="http://www.w3.org/2000/svg" xmlns:xlink="http://www.w3.org/1999/xlink" version="1.1" viewBox="-10 0 541 512">
   <path fill="currentColor"
d="M265.5 21q49.5 0 89.5 18q44 19 74 49q31 32 50 72.5t19 92.5q0 50 -20 90q-20 43 -49 73q-30 31 -72 49q-44 20 -91.5 20t-93.5 -20q-42 -18 -73 -49q-30 -32 -48 -73q-18 -43 -18 -90q0 -50 18 -92q18 -39 51 -73q30 -30 72 -49q42 -18 91.5 -18zM264 422q33 0 66 -13
q31 -12 55.5 -36t37.5 -55q13 -33 13 -66q0 -34 -13 -66q-13 -31 -38 -55q-19 -22 -55 -36q-33 -14 -66 -14q-30 0 -66 14q-33 14 -55 36q-24 24 -37 55q-13 32 -13 66q0 33 13 66q13 31 37.5 55t54.5 36q36 13 66 13z" />
</svg>
