<?xml version="1.0" standalone="no"?>
<!DOCTYPE svg PUBLIC "-//W3C//DTD SVG 1.1//EN" "http://www.w3.org/Graphics/SVG/1.1/DTD/svg11.dtd" >
<svg xmlns="http://www.w3.org/2000/svg" xmlns:xlink="http://www.w3.org/1999/xlink" version="1.1" viewBox="-10 0 517 512">
   <path fill="currentColor"
d="M164 283l-135 -19l3 17q2 22 13 50q13 40 39 68q14 17 27 27q11 9 13 10.5t4 2.5q7 3 11 8q22 14 31 14l13 6q11 4 13.5 3t4.5 -14q2 -18 2 -21l5 -25l11 -69q-9 -2 -30 -23t-25 -35zM274 393v-7q4 -17 4 -35q0 -5 7 -7q11 -3 27.5 -15.5t20.5 -23.5q4 -6 22 -3q7 0 26 2
l60 7h2h7h7.5t6.5 1.5t5.5 2t2.5 1.5t-1.5 3.5t-2.5 6.5t-1 5q-2 8 -12 26.5t-11 18.5t-1 6q0 1 -1 2t-1 0q-5 -1 -5 1q0 6 -17.5 23.5t-32.5 28.5q-5 2 -7 5l-2 3v1q0 -1 -18 7q-39 20 -74 22q-22 3 -22 0l4 -19zM104 204l-20 -4l-11 -2q-6 -1 -11.5 -1.5t-10.5 -1.5
q-13 -1 -13 -2t2 -7q3 -5 5 -10q0 -2 4 -13q5 -10 5 -11t11 -19t15 -24q29 -32 57 -48q35 -21 44 -21q2 0 11 -4t24 -5l16 -2l10 -1t10 6t-7 38l-2 13q2 0 -2 32l-3 16q-2 17 -2 19q0 1 -2 8q0 6 -2 7q-13 5 -28.5 15t-15.5 14q0 3 -3.5 3t-5.5 6t-9 5q-4 0 -17 -2l-14 -2
h-5t-11 -1t-12 -1h-7zM311 86q2 -1 2 -30q2 -17 5 -18q2 -2 19.5 5.5t32.5 16.5q29 15 55.5 46.5t37.5 58.5q2 9 9 24q4 9 5 32t-1 26q-4 2 -18 0q-2 0 -10.5 -2t-13.5 -2l-17 -2q-38 -5 -62 -9h-2h-2q-5 0 -14 -17q-11 -22 -30 -37q-5 -3 -5 -7t2 -22zM304 149l7 -63l-7 35
v28z" />
</svg>
