<?xml version="1.0" standalone="no"?>
<!DOCTYPE svg PUBLIC "-//W3C//DTD SVG 1.1//EN" "http://www.w3.org/Graphics/SVG/1.1/DTD/svg11.dtd" >
<svg xmlns="http://www.w3.org/2000/svg" xmlns:xlink="http://www.w3.org/1999/xlink" version="1.1" viewBox="-10 0 525 512">
   <path fill="currentColor"
d="M256 48q-26 0 -51.5 7.5t-47.5 19.5l-13 -14q27 -14 54.5 -21.5t57.5 -7.5q36 0 66.5 9t57.5 26l-14 13q-24 -15 -51.5 -23.5t-58.5 -8.5zM52 254q0 31 7.5 58.5t23.5 51.5l-14 12q-15 -26 -25 -57t-10 -65t10 -65t28 -57l13 12q-16 25 -24.5 52t-8.5 58zM463 254
q0 -28 -7.5 -53t-18.5 -47l13 -13q15 24 23 53t8 60q0 63 -31 114l-13 -14q26 -45 26 -100zM256 460q31 0 58.5 -8.5t51.5 -23.5l14 13q-27 18 -57.5 27t-66.5 9q-61 0 -112 -31l13 -13q22 12 47.5 19.5t51.5 7.5z" />
</svg>
