<?xml version="1.0" standalone="no"?>
<!DOCTYPE svg PUBLIC "-//W3C//DTD SVG 1.1//EN" "http://www.w3.org/Graphics/SVG/1.1/DTD/svg11.dtd" >
<svg xmlns="http://www.w3.org/2000/svg" xmlns:xlink="http://www.w3.org/1999/xlink" version="1.1" viewBox="-10 0 543 512">
   <path fill="currentColor"
d="M33 253q0 -48 19 -90.5t49.5 -74t73.5 -50t89 -18.5q51 0 92.5 18.5t73.5 50t51 74t19 90.5t-19 90.5t-51 74t-73.5 50t-92.5 18.5q-46 0 -89 -18.5t-73.5 -50t-49.5 -74t-19 -90.5zM51 253q0 45 16.5 84t46 68.5t68 45.5t82.5 16q46 0 85 -16t68.5 -45.5t46 -68.5
t16.5 -84t-16.5 -83.5t-46 -67.5t-68.5 -46t-85 -17q-44 0 -82.5 17t-68 46t-46 67.5t-16.5 83.5z" />
</svg>
