<?xml version="1.0" standalone="no"?>
<!DOCTYPE svg PUBLIC "-//W3C//DTD SVG 1.1//EN" "http://www.w3.org/Graphics/SVG/1.1/DTD/svg11.dtd" >
<svg xmlns="http://www.w3.org/2000/svg" xmlns:xlink="http://www.w3.org/1999/xlink" version="1.1" viewBox="-10 0 550 512">
   <path fill="currentColor"
d="M304 217l9 7l-37 37l37 38l-9 8l-35 -36l-37 38l-9 -9l37 -39l-37 -37l9 -7l37 36zM34 254q0 -96 69 -166.5t168 -70.5q95 0 165 70.5t70 166.5q0 99 -70 168t-165 69q-99 0 -168 -69t-69 -168zM51 254q0 90 64 154t156 64q88 0 153 -64t65 -154q0 -89 -65 -153.5
t-153 -64.5q-92 0 -156 64.5t-64 153.5z" />
</svg>
