<?xml version="1.0" standalone="no"?>
<!DOCTYPE svg PUBLIC "-//W3C//DTD SVG 1.1//EN" "http://www.w3.org/Graphics/SVG/1.1/DTD/svg11.dtd" >
<svg xmlns="http://www.w3.org/2000/svg" xmlns:xlink="http://www.w3.org/1999/xlink" version="1.1" viewBox="-10 0 284 512">
   <path fill="currentColor"
d="M137 165q22 0 40 7q19 9 33 22q15 15 22.5 33t7.5 41q0 22 -8 40q-9 19 -22 33q-14 14 -31 22q-20 8 -42 8t-42 -8q-17 -8 -31 -22q-15 -15 -22 -33q-8 -19 -8 -40q0 -22 8 -41q7 -17 22 -33q14 -13 33 -22q18 -7 40 -7zM137 344q13 0 29 -7q15 -4 26 -15t15 -25
q7 -15 7 -30q0 -14 -7 -29q-4 -14 -15 -25q-11 -10 -26 -15q-16 -7 -29 -7q-15 0 -31 7q-13 5 -24 15q-11 11 -15 25q-7 15 -7 29q0 15 7 30q4 14 15 25t24 15q16 7 31 7z" />
</svg>
