<?xml version="1.0" standalone="no"?>
<!DOCTYPE svg PUBLIC "-//W3C//DTD SVG 1.1//EN" "http://www.w3.org/Graphics/SVG/1.1/DTD/svg11.dtd" >
<svg xmlns="http://www.w3.org/2000/svg" xmlns:xlink="http://www.w3.org/1999/xlink" version="1.1" viewBox="-10 0 470 512">
   <path fill="currentColor"
d="M30 218q0 36 40 80q14 14 83.5 78t75.5 71q6 -6 46.5 -42t72 -66t41.5 -41q32 -42 39 -80q3 -20 1 -44.5t-6 -31.5q-3 -6 -6.5 -11.5t-4.5 -7t-3.5 -4.5t-5 -5.5t-6.5 -5.5t-11 -9q-18 -14 -52.5 -16t-50.5 7q-39 20 -54 49q-1 -1 -6 -8l-8 -9q-1 -2 -6 -7t-7.5 -7
t-6.5 -5.5t-9 -6t-11 -6.5q-48 -24 -102 9q-25 14 -36 48q-5 9 -6 19.5t-1 17v18v16.5z" />
</svg>
